<?xml version="1.0" standalone="no"?>
<!DOCTYPE svg PUBLIC "-//W3C//DTD SVG 1.1//EN" "http://www.w3.org/Graphics/SVG/1.1/DTD/svg11.dtd" >
<svg xmlns="http://www.w3.org/2000/svg" xmlns:xlink="http://www.w3.org/1999/xlink" version="1.1">
<metadata>
Created by FontForge 20170731 at Wed Jun 13 22:00:30 2007
 By Aleksey,,,
(c) 1987, 1990, 2002 Adobe Systems Incorporated. All rights reserved. Protected by U.S. Patents D289,421; D289422; D289,773.
</metadata>
<defs>
<font id="LucidaStd" horiz-adv-x="633" >
  <font-face 
    font-family="Lucida Std"
    font-weight="400"
    font-stretch="normal"
    units-per-em="1000"
    panose-1="2 6 6 2 5 5 5 2 2 4"
    ascent="777"
    descent="-223"
    x-height="530"
    cap-height="723"
    bbox="-289 -211 1026 976"
    underline-thickness="60"
    underline-position="-150"
    unicode-range="U+0020-FB02"
  />
<missing-glyph horiz-adv-x="500" 
d="M0 0v700h500v-700h-500zM250 395l170 255h-340zM280 350l170 -255v510zM80 50h340l-170 255zM50 605v-510l170 255z" />
    <glyph glyph-name="f_i" unicode="fi" horiz-adv-x="663" 
d="M458 627v96h96v-96h-96zM217 530h199l144 6l-6 -144v-248l6 -90l42 -6l6 -48h-204l6 48l42 6l6 90v248l-6 84h-235v-332l6 -90l42 -6l6 -48h-204l6 48l42 6l6 90v332h-79v54h79v10q0 117 18 156q41 87 145 87q52 0 107 -36l-6 -96l-48 6l-6 48q-21 30 -50 30
q-19 0 -32 -9t-19 -20t-9.5 -32t-3.5 -31.5v-32.5v-11v-69z" />
    <glyph glyph-name="f_l" unicode="fl" horiz-adv-x="663" 
d="M349 530v-54h-132v-332l6 -90l42 -6l6 -48h-204l6 48l42 6l6 90v332h-79v54h79v10q0 117 18 156q41 87 145 87q60 0 111 -12l165 6l-6 -144v-489l6 -90l42 -6l6 -48h-204l6 48l42 6l6 90v552q-75 39 -142 39q-52 0 -76 -23q-12 -11 -17 -30t-5.5 -28t-0.5 -35v-89h132z
" />
    <glyph glyph-name="f_f" unicode="ff" horiz-adv-x="723" 
d="M217 530h241v10q0 117 18 156q20 43 58 65t87 22q71 0 126 -36l-6 -96l-48 6l-6 48q-28 30 -65 30q-20 0 -33.5 -8.5t-20 -19t-10 -31t-4 -32t-0.5 -33.5v-10v-71h133v-54h-133v-332l6 -90l54 -6l6 -48h-216l6 48l42 6l6 90v332h-241v-332l6 -90l42 -6l6 -48h-204l6 48
l42 6l6 90v332h-79v54h79v10q0 117 18 156q41 87 145 87q52 0 107 -36l-6 -96l-48 6l-6 48q-21 30 -50 30q-19 0 -32 -9t-19 -20t-9.5 -32t-3.5 -31.5v-32.5v-11v-69z" />
    <glyph glyph-name="f_f_i" unicode="ffi" horiz-adv-x="1000" 
d="M795 627v96h96v-96h-96zM217 530h241v10q0 117 18 156q20 43 58 65t87 22q52 0 107 -36l-6 -96l-48 6l-6 48q-21 30 -50 30q-19 0 -32 -9t-19 -20t-9.5 -32t-3.5 -31.5v-32.5v-11v-69h199l144 6l-6 -144v-248l6 -90l42 -6l6 -48h-204l6 48l42 6l6 90v248l-6 84h-235v-332
l6 -90l42 -6l6 -48h-204l6 48l42 6l6 90v332h-241v-332l6 -90l42 -6l6 -48h-204l6 48l42 6l6 90v332h-79v54h79v10q0 117 18 156q41 87 145 87q52 0 107 -36l-6 -96l-48 6l-6 48q-21 30 -50 30q-19 0 -32 -9t-19 -20t-9.5 -32t-3.5 -31.5v-32.5v-11v-69z" />
    <glyph glyph-name="f_f_l" unicode="ffl" horiz-adv-x="1000" 
d="M554 619v-89h132v-54h-132v-332l6 -90l42 -6l6 -48h-204l6 48l42 6l6 90v332h-241v-332l6 -90l42 -6l6 -48h-204l6 48l42 6l6 90v332h-79v54h79v10q0 117 18 156q41 87 145 87q52 0 107 -36l-6 -96l-48 6l-6 48q-21 30 -50 30q-19 0 -32 -9t-19 -20t-9.5 -32t-3.5 -31.5
v-32.5v-11v-69h241v10q0 117 18 156q20 43 58 65t87 22q60 0 111 -12l165 6l-6 -144v-489l6 -90l42 -6l6 -48h-204l6 48l42 6l6 90v552q-75 39 -142 39q-52 0 -76 -23q-12 -11 -17 -30t-5.5 -28t-0.5 -35z" />
    <glyph glyph-name=".notdef" horiz-adv-x="500" 
d="M0 0v700h500v-700h-500zM250 395l170 255h-340zM280 350l170 -255v510zM80 50h340l-170 255zM50 605v-510l170 255z" />
    <glyph glyph-name=".null" horiz-adv-x="0" 
 />
    <glyph glyph-name="nonmarkingreturn" horiz-adv-x="333" 
 />
    <glyph glyph-name="space" unicode=" " horiz-adv-x="316" 
 />
    <glyph glyph-name="exclam" unicode="!" horiz-adv-x="241" 
d="M72 0v96h96v-96h-96zM96 193l-24 386v144h96v-144l-24 -386h-48z" />
    <glyph glyph-name="quotedbl" unicode="&#x22;" horiz-adv-x="386" 
d="M84 530l-24 241h96l-24 -241h-48zM253 530l-24 241h96l-24 -241h-48z" />
    <glyph glyph-name="numbersign" unicode="#" 
d="M99 0l55 217h-147l12 60h150l42 169h-158l12 60h161l54 217h62l-54 -217h129l54 217h62l-54 -217h146l-12 -60h-149l-42 -169h158l-12 -60h-161l-55 -217h-62l55 217h-129l-54 -217h-63zM231 277h129l42 169h-129z" />
    <glyph glyph-name="dollar" unicode="$" 
d="M347 306v-252q41 17 66 54t25 80q0 13 -2 24.5t-8.5 21.5t-10.5 17t-15.5 16t-16 12.5t-19.5 13.5t-19 13zM299 435v236q-37 -9 -60.5 -41.5t-23.5 -71.5q0 -70 84 -123zM347 675v-272l55 -34q43 -27 64 -44t38.5 -49.5t17.5 -76.5q0 -73 -51 -130.5t-124 -68.5v-60h-48
v60q-106 5 -192 42l6 106l48 -6l6 -49q61 -39 132 -45v286q-77 43 -122.5 93.5t-45.5 122.5q0 71 49 121.5t119 51.5v60h48v-60q85 -4 166 -35l-6 -100l-48 6l-6 48q-41 28 -106 33z" />
    <glyph glyph-name="percent" unicode="%" horiz-adv-x="699" 
d="M523 362q72 0 113 -53t41 -128t-41 -128t-113 -53t-112.5 53t-40.5 128t40.5 128t112.5 53zM523 314q-44 0 -62.5 -41t-18.5 -92q0 -50 18.5 -91.5t62.5 -41.5t63 41.5t19 91.5q0 51 -19 92t-63 41zM176 723q72 0 113 -53t41 -128t-41 -128t-113 -53t-112.5 53t-40.5 128
t40.5 128t112.5 53zM176 675q-44 0 -62.5 -41t-18.5 -92q0 -50 18.5 -91.5t62.5 -41.5t63 41.5t19 91.5q0 51 -19 92t-63 41zM29 -18l581 759h60l-581 -759h-60z" />
    <glyph glyph-name="ampersand" unicode="&#x26;" horiz-adv-x="714" 
d="M445 88l-209 304q-109 -45 -109 -149q0 -82 59 -141q54 -54 137 -54q70 0 122 40zM306 464l3 -6q98 47 98 148q0 39 -18.5 63t-55.5 24q-35 0 -57.5 -26.5t-22.5 -62.5q0 -51 53 -140zM520 0l-46 50q-102 -68 -203 -68q-100 0 -170.5 67.5t-70.5 167.5q0 78 52 136
t131 81q-56 84 -56 151q0 65 51 113q46 43 117 43q75 0 123.5 -37.5t48.5 -110.5q0 -62 -48.5 -109.5t-114.5 -67.5l178 -261q49 60 51 176l-51 6l-6 49h178l-6 -49l-48 -6q-12 -115 -87 -214l56 -63l49 -6l6 -48h-134z" />
    <glyph glyph-name="quotesingle" unicode="'" horiz-adv-x="241" 
d="M96 506l-36 265h120l-36 -265h-48z" />
    <glyph glyph-name="parenleft" unicode="(" horiz-adv-x="340" 
d="M286 -96v-49q-71 40 -124 119t-77.5 167t-24.5 172q0 137 60 262q68 142 166 196v-48q-130 -111 -130 -410q0 -298 130 -409z" />
    <glyph glyph-name="parenright" unicode=")" horiz-adv-x="340" 
d="M54 722v49q71 -40 124 -119t77.5 -167t24.5 -172q0 -137 -60 -262q-68 -142 -166 -196v48q130 111 130 410q0 298 -130 409z" />
    <glyph glyph-name="asterisk" unicode="*" horiz-adv-x="494" 
d="M279 562l137 64l23 -69l-149 -29v8q0 15 -11 26zM285 512l103 -111l-59 -43l-74 133q19 3 30 21zM239 491l-74 -133l-59 43l103 111q11 -18 30 -21zM204 528l-149 29l23 69l137 -64q-11 -11 -11 -26v-8zM229 572l-18 151h72l-18 -151q-10 5 -18 5t-18 -5z" />
    <glyph glyph-name="plus" unicode="+" 
d="M280 0v253h-253v72h253v253h72v-253h253v-72h-253v-253h-72z" />
    <glyph glyph-name="comma" unicode="," horiz-adv-x="316" 
d="M146 0h-48v120h120v-91q0 -33 -1.5 -51t-11 -42.5t-27.5 -42.5q-30 -30 -80 -38v37q17 2 28 13t14.5 30.5t4.5 31t1 33.5z" />
    <glyph glyph-name="hyphen" unicode="-" horiz-adv-x="349" 
d="M60 265l6 60h223l-6 -60h-223z" />
    <glyph glyph-name="period" unicode="." horiz-adv-x="316" 
d="M98 0v120h120v-120h-120z" />
    <glyph glyph-name="slash" unicode="/" horiz-adv-x="530" 
d="M6 -145l444 916h74l-444 -916h-74z" />
    <glyph glyph-name="zero" unicode="0" 
d="M316 -18q-127 0 -199 130q-54 99 -54 249q0 146 49 240q71 140 204 140q126 0 199 -129q54 -97 54 -251q0 -148 -51 -245q-72 -134 -202 -134zM316 30q48 0 81 36t46.5 95t18.5 105.5t5 94.5q0 49 -5 95.5t-18.5 105.5t-46.5 95t-81 36t-81 -36t-46.5 -95t-18.5 -105.5
t-5 -95.5q0 -37 2.5 -72.5t11.5 -85t24.5 -85.5t44.5 -62t68 -26z" />
    <glyph glyph-name="one" unicode="1" 
d="M364 729l-6 -163v-422l6 -90l103 -6l6 -48h-326l6 48l103 6l6 90v513l-108 6l-6 48z" />
    <glyph glyph-name="two" unicode="2" 
d="M380 316l-36 -26q-36 -26 -55 -41.5t-47.5 -44t-42.5 -58t-15 -62.5h337v-84h-431v48q21 67 53 114.5t87 98.5l33 31q80 75 106 108q53 70 53 139q0 65 -35 109.5t-97 44.5q-73 0 -128 -57l-6 -52l-48 -6l-6 115q111 48 195 48q97 0 162 -52.5t65 -146.5q0 -74 -36 -123
t-108 -103z" />
    <glyph glyph-name="three" unicode="3" 
d="M205 361h-33v48h13q39 0 66 2t59 11t51.5 25t33 45t13.5 70q0 63 -36 97t-99 34q-57 0 -105 -27l-6 -49l-48 -6l-6 97q73 33 180 33q85 0 139 -31q77 -47 77 -134q0 -68 -42 -115.5t-110 -68.5v-2q174 -35 174 -190q0 -106 -67.5 -162t-175.5 -56q-103 0 -184 26l6 108
l48 -6l6 -48q55 -32 115 -32q71 0 110.5 47.5t39.5 120.5q0 83 -61 127q-22 17 -51 25.5t-49 9.5t-58 1z" />
    <glyph glyph-name="four" unicode="4" 
d="M367 205h-325v48l362 482h60l-6 -169v-289h96v-72h-96v-61l6 -90l42 -6l6 -48h-211l6 48l54 6l6 90v61zM120 277h247v329z" />
    <glyph glyph-name="five" unicode="5" 
d="M189 392h-50v331h364v-84h-307l-6 -193h10q137 0 209 -42q52 -30 80.5 -82t28.5 -113q0 -114 -73.5 -170.5t-190.5 -56.5q-73 0 -134 18l6 102l49 -6l6 -48q39 -18 78 -18q76 0 116.5 53t40.5 132q0 63 -33.5 104.5t-82.5 57t-111 15.5z" />
    <glyph glyph-name="six" unicode="6" 
d="M530 705l-6 -103l-48 6l-6 52q-53 33 -116 33q-50 0 -87.5 -34t-56 -87t-27 -104t-8.5 -98q60 94 172 94q97 0 156.5 -64t59.5 -162q0 -104 -65.5 -180t-168.5 -76q-74 0 -127 33t-80 89.5t-38.5 117t-11.5 130.5q0 59 8.5 112.5t29.5 104.5t53 88.5t82.5 60.5t114.5 23
q82 0 170 -36zM329 416q-64 0 -112 -48q-39 -36 -39 -103q0 -51 14.5 -102.5t52 -92t89.5 -40.5q61 0 99 53q34 49 34 136q0 49 -11.5 91t-44 74t-82.5 32z" />
    <glyph glyph-name="seven" unicode="7" 
d="M577 723v-63l-202 -311q-107 -204 -111 -349l-115 -12q22 134 130 325l218 320h-384v90h464z" />
    <glyph glyph-name="eight" unicode="8" 
d="M343 422q44 25 71.5 69.5t27.5 93.5q0 52 -35.5 80t-89.5 28q-57 0 -89 -31q-34 -32 -34 -79q0 -17 4.5 -32t15.5 -29t19.5 -24t26.5 -23t26.5 -18.5t30 -18.5t26.5 -16zM391 282l-129 75q-92 -47 -92 -169q0 -70 37.5 -114t106.5 -44q62 0 104 37t42 99q0 67 -69 116z
M221 389q-53 35 -82 74t-29 94q0 82 62 136q56 48 155 48q83 0 141 -40.5t58 -120.5q0 -58 -42 -105.5t-101 -75.5q75 -30 124 -83.5t49 -126.5q0 -92 -73 -153q-66 -54 -172 -54q-97 0 -167 50t-70 143q0 70 41 128t106 86z" />
    <glyph glyph-name="nine" unicode="9" 
d="M102 6l6 102l48 -6l6 -47q50 -25 104 -25q50 0 88.5 32t59.5 82t31.5 99.5t11.5 96.5q-69 -81 -172 -81q-43 0 -85 19.5t-72 52.5q-59 66 -59 163q0 92 59 165q66 82 176 82q139 0 201 -106q56 -97 56 -244q0 -162 -68 -271q-86 -138 -238 -138q-73 0 -153 24zM303 307
q63 0 113 48q39 38 39 103q0 51 -14.5 102t-52 92t-90.5 41q-61 0 -99 -54q-34 -48 -34 -135q0 -49 11.5 -91t44 -74t82.5 -32z" />
    <glyph glyph-name="colon" unicode=":" horiz-adv-x="316" 
d="M110 0v96h96v-96h-96zM110 434v96h96v-96h-96z" />
    <glyph glyph-name="semicolon" unicode=";" horiz-adv-x="316" 
d="M110 -145v43q24 11 32 42q4 14 4 60h-36v96h96v-62q0 -68 -20 -113.5t-76 -65.5zM110 434v96h96v-96h-96z" />
    <glyph glyph-name="less" unicode="&#x3c;" 
d="M605 578v-81l-416 -208l416 -208v-81l-578 289z" />
    <glyph glyph-name="equal" unicode="=" 
d="M27 169v72h578v-72h-578zM27 338v72h578v-72h-578z" />
    <glyph glyph-name="greater" unicode="&#x3e;" 
d="M27 0v81l417 208l-417 208v81l578 -289z" />
    <glyph glyph-name="question" unicode="?" horiz-adv-x="505" 
d="M163 193v27q0 44 17 79.5t60 78.5q104 104 104 192q0 58 -35 90.5t-94 32.5t-104 -33l-6 -46l-48 -6l-6 100q88 33 187 33q83 0 145.5 -41t62.5 -120q0 -40 -15.5 -73t-31 -50t-52.5 -51q-63 -56 -75.5 -86.5t-12.5 -109.5v-17h-96zM163 0v96h96v-96h-96z" />
    <glyph glyph-name="at" unicode="@" horiz-adv-x="877" 
d="M519 298l4 12h-12q-36 -63 -86.5 -114t-103.5 -51q-43 0 -66 32t-23 77q0 68 32.5 141t94 125t132.5 52q26 0 84 -15l8 -2l56 20l-26 -99l-39 -193q-6 -34 -6 -52q0 -35 37 -35q74 0 126 79q46 68 46 156q0 114 -81 188t-197 74q-102 0 -195.5 -55t-150.5 -147.5
t-57 -195.5q0 -119 77.5 -192t196.5 -73q82 0 153 36l15 -44q-76 -40 -166 -40q-138 0 -224 73q-45 40 -72.5 101.5t-27.5 121.5q0 84 36 170t96 149q62 67 148 105.5t177 38.5q135 0 227.5 -86.5t92.5 -220.5q0 -113 -70.5 -201t-181.5 -88q-32 0 -56 13.5t-24 42.5
q0 24 26 97zM525 401l21 102l-6 2q-48 19 -80 19q-84 0 -124 -94q-32 -77 -32 -148q0 -77 45 -77q40 0 95.5 70t80.5 126z" />
    <glyph glyph-name="A" unicode="A" horiz-adv-x="712" 
d="M179 217l-61 -163l48 -6l6 -48h-160l6 48l30 6l49 102l227 579h58l238 -602l38 -79l30 -6l6 -48h-200l6 48l48 6l-66 163h-303zM198 265h265l-133 338z" />
    <glyph glyph-name="B" unicode="B" horiz-adv-x="617" 
d="M216 398h18h17h18.5t16 0.5t18 1.5t15.5 3t17 4.5t14.5 7t16.5 9.5q58 42 58 125q0 35 -12.5 59.5t-29.5 37.5t-46.5 19.5t-51.5 8t-58 1.5h-11v-277zM293 0h-227l6 48l42 6l6 90v435l-6 90l-42 6l-6 48h243q100 0 144 -27q33 -21 52 -57.5t19 -76.5q0 -68 -46.5 -117.5
t-115.5 -69.5v-2q79 -8 135.5 -60.5t56.5 -129.5q0 -47 -21 -86.5t-60 -64.5q-25 -16 -60 -23.5t-54.5 -8t-65.5 -0.5zM223 54l67 -6q78 0 120 39q42 42 42 103q0 73 -64 116.5t-141 43.5h-31v-206z" />
    <glyph glyph-name="C" unicode="C" horiz-adv-x="708" 
d="M620 709l15 -4l-6 -115l-48 6l-6 51q-79 46 -158 46q-131 0 -196 -108q-59 -97 -59 -231q0 -133 72 -227t202 -94q117 0 206 64v-57q-90 -58 -226 -58q-173 0 -265 109q-91 106 -91 275q0 74 22 146.5t65 123.5q89 105 265 105q85 0 208 -32z" />
    <glyph glyph-name="D" unicode="D" horiz-adv-x="777" 
d="M222 60l103 -6q151 0 222 90q68 85 68 227q0 153 -91 237q-46 43 -102.5 55t-140.5 12h-65v-531zM66 0l6 48l42 6l6 90v435l-6 90l-42 6l-6 48h305q168 0 255 -88q91 -91 91 -257q0 -171 -91 -274q-51 -59 -116.5 -81.5t-152.5 -22.5h-291z" />
    <glyph glyph-name="E" unicode="E" horiz-adv-x="575" 
d="M545 0h-479l6 48l42 6l6 90v435l-6 90l-42 6l-6 48h458l-6 -109l-48 6l-6 49l-103 6h-145v-272h254l-6 -54l-121 6h-127v-211l6 -90h164l99 6l6 54l48 6z" />
    <glyph glyph-name="F" unicode="F" horiz-adv-x="563" 
d="M216 344v-200l6 -90l42 -6l6 -48h-204l6 48l42 6l6 90v435l-6 90l-42 6l-6 48h452l-6 -103l-48 6l-6 43l-97 6h-145v-283h248l-6 -54l-97 6h-145z" />
    <glyph glyph-name="G" unicode="G" horiz-adv-x="744" 
d="M546 48v184l-55 6l-6 48h211l-6 -48l-42 -6l-6 -103v-111q-137 -36 -232 -36q-167 0 -258.5 107t-91.5 277q0 72 21 143.5t62 122.5q90 109 260 109q116 0 245 -36l-6 -127l-48 6l-6 55q-96 54 -176 54q-66 0 -116 -30.5t-78 -81.5t-42 -108.5t-14 -118.5
q0 -137 73.5 -229t206.5 -92q47 0 104 15z" />
    <glyph glyph-name="H" unicode="H" horiz-adv-x="783" 
d="M216 350v-206l6 -90l42 -6l6 -48h-204l6 48l42 6l6 90v435l-6 90l-42 6l-6 48h204l-6 -48l-42 -6l-6 -90v-181h351v181l-6 90l-42 6l-6 48h204l-6 -48l-42 -6l-6 -90v-435l6 -90l42 -6l6 -48h-204l6 48l42 6l6 90v206h-351z" />
    <glyph glyph-name="I" unicode="I" horiz-adv-x="337" 
d="M120 144v435l-6 90l-42 6l-6 48h204l-6 -48l-42 -6l-6 -90v-435l6 -90l42 -6l6 -48h-204l6 48l42 6z" />
    <glyph glyph-name="J" unicode="J" horiz-adv-x="428" 
d="M0 -136l6 115l48 -6l6 -51q31 -19 61 -19q22 0 38.5 8t26 26t15 32t7.5 41.5t2.5 38t0.5 37.5v493l-6 90l-42 6l-6 48h204l-6 -48l-42 -6l-6 -90v-433q0 -51 -0.5 -73.5t-8.5 -63.5t-25 -67q-55 -87 -191 -87q-33 0 -82 9z" />
    <glyph glyph-name="K" unicode="K" horiz-adv-x="691" 
d="M216 579v-435l6 -90l42 -6l6 -48h-204l6 48l42 6l6 90v435l-6 90l-42 6l-6 48h204l-6 -48l-42 -6zM217 368l259 301l-48 6l-6 48h168l-6 -48l-30 -6l-92 -100l-155 -180l303 -335l36 -6l6 -48h-206l6 48l36 6l-271 312v2z" />
    <glyph glyph-name="L" unicode="L" horiz-adv-x="572" 
d="M120 144v435l-6 90l-42 6l-6 48h204l-6 -48l-42 -6l-6 -90v-435l7 -90h163l102 6l6 67l48 6l6 -133h-482l6 48l42 6z" />
    <glyph glyph-name="M" unicode="M" horiz-adv-x="867" 
d="M194 584v-440l6 -90l42 -6l6 -48h-182l6 48l42 6l6 90v435l-6 90l-42 6l-6 48h173l203 -532l211 532h148l-6 -48l-42 -6l-6 -90v-435l6 -90l42 -6l6 -48h-198l6 48l42 6l6 90v440h-2l-209 -530h-48l-202 530h-2z" />
    <glyph glyph-name="N" unicode="N" horiz-adv-x="762" 
d="M120 144v435l-6 90l-42 6l-6 48h129l379 -589v445l-6 90l-42 6l-6 48h176l-6 -48l-42 -6l-6 -90v-588h-82l-372 579v-426l6 -90l42 -6l6 -48h-176l6 48l42 6z" />
    <glyph glyph-name="O" unicode="O" horiz-adv-x="789" 
d="M395 -18q-160 0 -252 111q-83 97 -83 268q0 167 79 264q93 116 256 116q155 0 248 -106q86 -99 86 -274q0 -167 -78 -263q-94 -116 -256 -116zM395 30q64 0 111 30.5t72 81t37 105.5t12 114q0 60 -12 115t-37 105.5t-72 81t-111 30.5t-111.5 -30.5t-72.5 -81t-37 -105.5
t-12 -115t12 -114.5t37 -105t72.5 -81t111.5 -30.5z" />
    <glyph glyph-name="P" unicode="P" horiz-adv-x="581" 
d="M216 301v-247l61 -6l6 -48h-217l6 48l42 6l6 90v435l-6 90l-42 6l-6 48h277q98 0 154.5 -46.5t56.5 -141.5q0 -134 -101 -192q-75 -42 -219 -42h-18zM216 349h20q36 0 57 1.5t49.5 11t50.5 27.5q59 49 59 145q0 73 -37.5 107t-111.5 34q-37 0 -87 -12v-314z" />
    <glyph glyph-name="Q" unicode="Q" horiz-adv-x="789" 
d="M453 -12l-58 -6q-160 0 -252 111q-83 97 -83 268q0 167 79 264q93 116 256 116q155 0 248 -106q86 -101 86 -267q0 -147 -53 -233q-65 -104 -161 -131q135 -62 352 -91q-43 -33 -122 -59q-152 38 -292 134zM395 30q64 0 111 30.5t72 81t37 105.5t12 114q0 60 -12 115
t-37 105.5t-72 81t-111 30.5t-111.5 -30.5t-72.5 -81t-37 -105.5t-12 -115t12 -114.5t37 -105t72.5 -81t111.5 -30.5z" />
    <glyph glyph-name="R" unicode="R" horiz-adv-x="675" 
d="M216 319v-265l36 -6l6 -48h-192l6 48l42 6l6 90v435l-6 90l-42 6l-6 48h263q100 0 149 -34q71 -49 71 -145q0 -73 -40.5 -127t-110.5 -77l136 -205l59 -81l42 -6l6 -48h-146l-192 319h-87zM216 367h19q35 0 56.5 1.5t51 10t49.5 24.5q55 44 55 137q0 67 -39 101t-107 34
q-37 0 -85 -12v-296z" />
    <glyph glyph-name="S" unicode="S" horiz-adv-x="554" 
d="M63 15l6 121l48 -6l6 -49q77 -51 137 -51q63 0 105 37.5t42 98.5q0 31 -10 55t-28.5 41.5t-39 31t-46.5 28.5q-4 2 -5.5 3t-4.5 2.5l-5 2.5q-39 22 -55 31.5t-49 33.5t-47.5 42.5t-28 48.5t-13.5 63q0 79 60 137q56 55 148 55q91 0 184 -30l-6 -112l-48 6l-6 49
q-64 39 -125 39q-48 0 -80.5 -36t-32.5 -85q0 -28 9.5 -50t32.5 -41.5t36.5 -28t46.5 -27.5q102 -59 134 -84q75 -58 75 -151q0 -94 -69.5 -151t-165.5 -57q-84 0 -205 33z" />
    <glyph glyph-name="T" unicode="T" horiz-adv-x="687" 
d="M295 144v531h-126l-79 -6l-6 -55l-48 -6l-6 115h626l-6 -115l-48 6l-6 55l-79 6h-126v-531l6 -90l42 -6l6 -48h-204l6 48l42 6z" />
    <glyph glyph-name="U" unicode="U" horiz-adv-x="729" 
d="M108 281v298l-6 90l-42 6l-6 48h204l-6 -48l-42 -6l-6 -90v-277q0 -128 17 -173q17 -47 60 -73t95 -26q44 0 83.5 18.5t60.5 53.5q5 8 9 17t6.5 19.5t4.5 19t3.5 21.5t2 20t1 22t0.5 20v21v19v298l-6 90l-42 6l-6 48h182l-6 -48l-42 -6l-6 -90v-272v-23.5v-24t-0.5 -22
t-1 -23.5t-2 -22t-3.5 -23t-5 -21t-7 -22.5t-9.5 -21t-11.5 -21.5q-35 -56 -87.5 -78.5t-124.5 -22.5q-141 0 -208 82q-33 40 -43 92.5t-10 124.5z" />
    <glyph glyph-name="V" unicode="V" horiz-adv-x="693" 
d="M331 -9l-231 599l-36 79l-30 6l-6 48h199l-6 -48l-48 -6l203 -528l195 528l-48 6l-6 48h154l-6 -48l-30 -6l-44 -102l-212 -576h-48z" />
    <glyph glyph-name="W" unicode="W" horiz-adv-x="924" 
d="M243 -9l-143 599l-25 79l-30 6l-6 48h191l-6 -48l-49 -6l116 -496h2l157 544h49l155 -548l139 500l-55 6l-6 48h161l-6 -48l-30 -6l-36 -102l-160 -576h-50l-159 556l-162 -556h-47z" />
    <glyph glyph-name="X" unicode="X" horiz-adv-x="640" 
d="M263 360l-135 229l-52 80l-30 6l-6 48h208l-6 -48l-48 -6l145 -248l162 248l-48 6l-6 48h160l-6 -48l-30 -6l-71 -101l-125 -190l144 -244l52 -80l30 -6l6 -48h-208l6 48l48 6l-154 263l-170 -263l48 -6l6 -48h-160l6 48l30 6l70 101z" />
    <glyph glyph-name="Y" unicode="Y" horiz-adv-x="657" 
d="M281 321l-159 267l-53 81l-30 6l-6 48h208l-6 -48l-48 -6l167 -282l171 282l-48 6l-6 48h160l-6 -48l-30 -6l-68 -101l-150 -247v-177l6 -90l42 -6l6 -48h-204l6 48l42 6l6 90v177z" />
    <glyph glyph-name="Z" unicode="Z" horiz-adv-x="645" 
d="M64 0v48l392 627h-235l-79 -12l-6 -61l-48 -6l-6 127h480v-48l-387 -621h231l102 12l6 55l48 6l6 -127h-504z" />
    <glyph glyph-name="bracketleft" unicode="[" horiz-adv-x="340" 
d="M96 -145v916h193v-48h-108v-820h108v-48h-193z" />
    <glyph glyph-name="backslash" unicode="\" horiz-adv-x="530" 
d="M450 -145l-444 916h74l444 -916h-74z" />
    <glyph glyph-name="bracketright" unicode="]" horiz-adv-x="340" 
d="M244 771v-916h-193v48h108v820h-108v48h193z" />
    <glyph glyph-name="asciicircum" unicode="^" 
d="M27 145l289 578l289 -578h-80l-209 416l-208 -416h-81z" />
    <glyph glyph-name="underscore" unicode="_" horiz-adv-x="500" 
d="M0 -60v60h500v-60h-500z" />
    <glyph glyph-name="grave" unicode="`" horiz-adv-x="627" 
d="M191 771h112l105 -144h-69z" />
    <glyph glyph-name="a" unicode="a" horiz-adv-x="561" 
d="M350 99v166h-14q-189 0 -189 -114q0 -42 27 -69.5t70 -27.5q45 0 106 45zM338 313h12v33q0 88 -18 113q-27 35 -82 35q-59 0 -105 -43l-6 -53h-48l-6 99q98 45 190 45q81 0 130 -43q20 -18 29.5 -40.5t10.5 -38t1 -49.5v-212q0 -22 0.5 -33t4.5 -33.5t15 -33.5t28 -11
q9 0 25 4l6 -52q-34 -12 -63 -12q-40 0 -60.5 21.5t-29.5 63.5q-42 -43 -81.5 -64t-91.5 -21q-64 0 -109 42.5t-45 106.5q0 102 104 150q58 26 189 26z" />
    <glyph glyph-name="b" unicode="b" horiz-adv-x="642" 
d="M192 383v-269q67 -60 149 -60q49 0 80.5 35.5t41.5 78t10 91.5q0 37 -5 69.5t-17.5 67t-39.5 54.5t-66 20q-89 0 -153 -87zM187 60l-12 -66h-85l6 144v495l-6 84l-42 6l-6 48l156 6l-6 -144v-115l-6 -87h6q32 50 81 80.5t106 30.5q69 0 115 -41.5t63.5 -98t17.5 -123.5
q0 -54 -12.5 -104t-38 -93t-70 -68.5t-102.5 -25.5q-97 0 -160 72h-5z" />
    <glyph glyph-name="c" unicode="c" horiz-adv-x="539" 
d="M470 518l-6 -108l-48 6l-6 48q-41 30 -88 30q-41 0 -73.5 -22t-50.5 -57t-27 -73.5t-9 -76.5q0 -91 43.5 -151t131.5 -60q68 0 133 30v-66q-72 -30 -148 -30q-116 0 -185 73q-77 81 -77 204q0 120 66.5 198.5t183.5 78.5q69 0 160 -24z" />
    <glyph glyph-name="d" unicode="d" horiz-adv-x="666" 
d="M449 -6l6 105h-6q-32 -50 -81 -80.5t-106 -30.5q-69 0 -115 41.5t-63.5 98t-17.5 123.5q0 54 12.5 104t38 93t70 68.5t102.5 25.5q97 0 160 -72h6l-6 72v91l-6 84l-42 6l-6 48l156 6l-6 -144v-489l6 -90l42 -6l6 -48zM449 147v269q-67 60 -149 60q-49 0 -80.5 -35.5
t-41.5 -78t-10 -91.5q0 -37 5 -69.5t17.5 -67t39.5 -54.5t66 -20q89 0 153 87z" />
    <glyph glyph-name="e" unicode="e" horiz-adv-x="563" 
d="M491 277h-329q2 -82 23 -128q20 -42 61 -68.5t87 -26.5q86 0 158 42v-72q-87 -36 -167 -36q-121 0 -192.5 80t-71.5 203q0 113 63 192t173 79q101 0 154 -80q41 -60 41 -174v-11zM168 325h221q0 35 -3.5 60.5t-13 52.5t-31 41.5t-54.5 14.5q-40 0 -68 -28.5t-39 -65
t-12 -75.5z" />
    <glyph glyph-name="f" unicode="f" horiz-adv-x="410" 
d="M361 530v-54h-132v-332l6 -90l42 -6l6 -48h-204l6 48l42 6l6 90v332h-79v54h79v10q0 117 18 156q41 87 145 87q70 0 126 -36l-6 -96l-48 6l-6 48q-28 30 -65 30q-20 0 -33.5 -8.5t-20 -19t-10 -31t-4 -32t-0.5 -33.5v-10v-71h132z" />
    <glyph glyph-name="g" unicode="g" horiz-adv-x="601" 
d="M337 12h-142q-49 -37 -49 -88q0 -32 26.5 -51.5t55 -24.5t60.5 -5q61 0 112 26t51 81q0 36 -35 53q-20 9 -79 9zM259 84h60q104 0 141 -10q84 -23 84 -111q0 -46 -24 -80t-63.5 -52.5t-80.5 -27t-83 -8.5q-32 0 -67.5 4.5t-78 15t-70 34.5t-27.5 58q0 71 106 113
q-55 24 -55 71q0 23 18 43.5t31.5 28t43.5 23.5q-50 20 -79 66.5t-29 101.5q0 83 53 136q52 52 150 52q54 0 98 -20l186 14l-30 -72l-105 18q46 -54 46 -127q0 -77 -55 -134q-52 -52 -147 -52q-33 0 -53 6q-41 -27 -41 -58q0 -34 66 -33h5zM281 500q-52 0 -75.5 -44
t-23.5 -102q0 -59 25 -101t80 -42q48 0 75 42q26 37 26 103q0 61 -25 102.5t-82 41.5z" />
    <glyph glyph-name="h" unicode="h" horiz-adv-x="657" 
d="M120 144v489l-6 84l-42 6l-6 48l156 6l-6 -144v-177l-6 -25h6q29 47 83 79t107 32q73 0 113 -50q35 -43 35 -131v-217l6 -90l42 -6l6 -48h-204l6 48l42 6l6 90v202q0 26 -0.5 39.5t-5 32.5t-13 28.5t-25.5 16.5t-41 7q-30 0 -60.5 -13.5t-49 -28.5t-47.5 -42v-242l6 -90
l42 -6l6 -48h-204l6 48l42 6z" />
    <glyph glyph-name="i" unicode="i" horiz-adv-x="337" 
d="M216 392v-248l6 -90l42 -6l6 -48h-204l6 48l42 6l6 90v248l-6 84l-42 6l-6 48l156 6zM120 627v96h96v-96h-96z" />
    <glyph glyph-name="j" unicode="j" horiz-adv-x="364" 
d="M256 392v-374q0 -108 -28 -152q-46 -71 -151 -71q-51 0 -107 18l6 103l48 -6l6 -49q36 -18 59 -18q37 0 56 33q15 26 15 96v420l-6 84l-42 6l-6 48l156 6zM160 627v96h96v-96h-96z" />
    <glyph glyph-name="k" unicode="k" horiz-adv-x="607" 
d="M216 261v-117l6 -90l30 -6l6 -48h-192l6 48l42 6l6 90v489l-6 84l-42 6l-6 48l156 6l-6 -144v-348h23l179 191l-42 6l-6 48h157l-6 -48l-30 -6l-165 -169l220 -253l42 -6l6 -48h-142l-213 261h-23z" />
    <glyph glyph-name="l" unicode="l" horiz-adv-x="337" 
d="M216 633v-489l6 -90l42 -6l6 -48h-204l6 48l42 6l6 90v489l-6 84l-42 6l-6 48l156 6z" />
    <glyph glyph-name="m" unicode="m" horiz-adv-x="970" 
d="M216 456l-6 -25h6q81 111 185 111q53 0 91.5 -30t43.5 -81h6q79 111 184 111q62 0 100 -38q42 -42 42 -131v-229l6 -90l42 -6l6 -48h-204l6 48l42 6l6 90v212q0 22 -0.5 33.5t-4 29.5t-11 27t-21.5 16.5t-35 7.5q-80 0 -158 -84v-242l6 -90l42 -6l6 -48h-204l6 48l42 6
l6 90v212q0 21 -0.5 33t-4.5 30t-11 27t-21 16.5t-34 7.5q-79 0 -159 -84v-242l6 -90l42 -6l6 -48h-204l6 48l42 6l6 90v248l-6 84l-42 6l-6 48l150 6v-80z" />
    <glyph glyph-name="n" unicode="n" horiz-adv-x="657" 
d="M216 456l-6 -25h6q29 47 83 79t107 32q73 0 113 -50q35 -43 35 -131v-217l6 -90l42 -6l6 -48h-204l6 48l42 6l6 90v202q0 26 -0.5 39.5t-5 32.5t-13 28.5t-25.5 16.5t-41 7q-30 0 -60.5 -13.5t-49 -28.5t-47.5 -42v-242l6 -90l42 -6l6 -48h-204l6 48l42 6l6 90v248l-6 84
l-42 6l-6 48l150 6v-80z" />
    <glyph glyph-name="o" unicode="o" horiz-adv-x="627" 
d="M313 542q122 0 187.5 -76.5t65.5 -200.5t-65.5 -200.5t-187.5 -76.5q-121 0 -187 76.5t-66 200.5t66 200.5t187 76.5zM313 494q-52 0 -88 -39.5t-49.5 -89t-13.5 -100.5t13.5 -100.5t49.5 -89t88 -39.5t88 39.5t49.5 89t13.5 100.5t-13.5 100.5t-49.5 89t-88 39.5z" />
    <glyph glyph-name="p" unicode="p" horiz-adv-x="666" 
d="M216 456l-6 -25h6q32 50 81 80.5t106 30.5q69 0 115 -41.5t63.5 -98t17.5 -123.5q0 -54 -12.5 -104t-38 -93t-70 -68.5t-102.5 -25.5q-97 0 -160 72h-6l6 -109l6 -90l42 -6l6 -48h-204l6 48l42 6l6 90v441l-6 84l-42 6l-6 48l150 6v-80zM216 383v-269q67 -60 149 -60
q49 0 80.5 35.5t41.5 78t10 91.5q0 37 -5 69.5t-17.5 67t-39.5 54.5t-66 20q-89 0 -153 -87z" />
    <glyph glyph-name="q" unicode="q" horiz-adv-x="642" 
d="M450 147v269q-67 60 -149 60q-49 0 -80.5 -35.5t-41.5 -78t-10 -91.5q0 -37 5 -69.5t17.5 -67t39.5 -54.5t66 -20q89 0 153 87zM456 470l-6 60l102 6l-6 -163v-422l6 -90l42 -6l6 -48h-204l6 48l42 6l6 90v123l6 25h-6q-32 -50 -81 -80.5t-106 -30.5q-69 0 -115 41.5
t-63.5 98t-17.5 123.5q0 54 12.5 104t38 93t70 68.5t102.5 25.5q97 0 160 -72h6z" />
    <glyph glyph-name="r" unicode="r" horiz-adv-x="452" 
d="M421 536l-6 -132l-48 6l-6 48q-46 0 -77.5 -17.5t-67.5 -54.5v-242l6 -90l54 -6l6 -48h-216l6 48l42 6l6 90v248l-6 84l-42 6l-6 48l150 6v-80l-6 -25h6q26 49 73 80t100 31q20 0 32 -6z" />
    <glyph glyph-name="s" unicode="s" horiz-adv-x="528" 
d="M80 27l6 118l48 -6l6 -55q63 -48 124 -48q42 0 73 23t31 63q0 21 -7.5 36.5t-26.5 27.5t-29 17t-37 15q-7 3 -10 4q-35 14 -51.5 21t-45 23.5t-42 32t-25 41.5t-11.5 57q0 66 55 105.5t124 39.5q86 0 164 -30l-6 -114l-48 6l-6 54q-51 36 -103 36q-35 0 -62.5 -22.5
t-27.5 -56.5q0 -36 30 -60q24 -19 106 -51q82 -34 109 -56q46 -38 46 -100q0 -78 -61 -119t-143 -41q-100 0 -180 39z" />
    <glyph glyph-name="t" unicode="t" horiz-adv-x="404" 
d="M127 178v298h-67v54h67v97l96 24v-121h135v-54h-135v-311q0 -55 13 -83q21 -40 63 -40q26 0 59 15v-54q-33 -15 -75 -15q-83 0 -126 53q-15 18 -22 45t-7.5 41.5t-0.5 50.5z" />
    <glyph glyph-name="u" unicode="u" horiz-adv-x="657" 
d="M440 74l6 25h-6q-29 -47 -83 -79t-107 -32q-73 0 -113 50q-35 43 -35 131v217l-6 90l-42 6l-6 48l156 6l-6 -144v-208q0 -32 2 -49t9.5 -37t25.5 -29t48 -9q80 0 157 85v247l-6 84l-42 6l-6 48l156 6l-6 -144v-248l6 -90l42 -6l6 -48l-150 -6v80z" />
    <glyph glyph-name="v" unicode="v" horiz-adv-x="603" 
d="M274 -6l-168 403l-39 79l-30 6l-6 48h201l-6 -48l-48 -6l147 -356l159 356l-48 6l-6 48h149l-6 -48l-30 -6l-51 -101l-170 -381h-48z" />
    <glyph glyph-name="w" unicode="w" horiz-adv-x="827" 
d="M212 -6l-119 404l-29 78l-30 6l-6 48h186l-6 -48l-42 -6l98 -336l146 390h52l137 -391l110 337l-42 6l-6 48h143l-6 -48l-30 -6l-41 -102l-125 -380h-48l-142 405l-151 -405h-49z" />
    <glyph glyph-name="x" unicode="x" horiz-adv-x="575" 
d="M239 258l-101 137l-64 81l-30 6l-6 48h203l-6 -48l-36 -6l113 -154l116 154l-36 6l-6 48h145l-6 -48l-30 -6l-86 -100l-70 -92l110 -149l64 -81l30 -6l6 -48h-204l6 48l36 6l-118 163l-124 -163l36 -6l6 -48h-157l6 48l42 6l83 100z" />
    <glyph glyph-name="y" unicode="y" horiz-adv-x="607" 
d="M122 -193l149 193l-166 397l-39 79l-30 6l-6 48h201l-6 -48l-48 -6l148 -353l157 353l-48 6l-6 48h149l-6 -48l-30 -6l-52 -101l-252 -568h-115z" />
    <glyph glyph-name="z" unicode="z" horiz-adv-x="617" 
d="M78 0v48l333 434h-182l-79 -6l-6 -54l-48 -6l-6 114h435v-48l-328 -428h201l78 6l6 48l48 6l6 -114h-458z" />
    <glyph glyph-name="braceleft" unicode="{" horiz-adv-x="340" 
d="M48 289h-15v48h10q46 0 66 20q23 24 23 67q0 9 -12 87q-15 77 -15 106q0 69 52.5 112.5t122.5 41.5v-48q-39 1 -65 -17.5t-26 -55.5q0 -24 7 -61q14 -80 14 -124q0 -49 -22.5 -91t-64.5 -61q42 -19 64.5 -61t22.5 -91q0 -46 -13 -117q-8 -46 -8 -67q0 -38 26 -56.5
t65 -17.5v-48q-70 -2 -122.5 42t-52.5 113q0 28 15 105q12 78 12 87q0 87 -84 87z" />
    <glyph glyph-name="bar" unicode="|" horiz-adv-x="265" 
d="M96 -145v916h72v-916h-72z" />
    <glyph glyph-name="braceright" unicode="}" horiz-adv-x="340" 
d="M307 289h-15q-84 0 -84 -87q0 -9 12 -87q15 -78 15 -105q0 -69 -52.5 -113t-122.5 -42v48q39 -1 65 17.5t26 56.5q0 21 -8 67q-13 71 -13 117q0 49 22.5 91t64.5 61q-42 19 -64.5 61t-22.5 91q0 44 14 124q7 37 7 61q0 37 -26 55.5t-65 17.5v48q70 2 122.5 -41.5
t52.5 -112.5q0 -29 -15 -106q-12 -78 -12 -87q0 -43 23 -67q20 -20 66 -20h10v-48z" />
    <glyph glyph-name="asciitilde" unicode="~" 
d="M315 331l43 -22q72 -38 118 -38q38 0 58 25.5t23 64.5h48q0 -70 -41 -116t-110 -46q-22 0 -49.5 9t-41.5 15.5t-46 23.5l-43 23q-72 37 -118 37q-37 0 -57 -25t-24 -65h-48q1 71 41.5 117t109.5 46q46 0 137 -49z" />
    <glyph glyph-name="uni00A0" unicode="&#xa0;" horiz-adv-x="316" 
 />
    <glyph glyph-name="exclamdown" unicode="&#xa1;" horiz-adv-x="217" 
d="M60 434v96h96v-96h-96zM132 337l24 -386v-144h-96v144l24 386h48z" />
    <glyph glyph-name="cent" unicode="&#xa2;" 
d="M316 0v87q-101 10 -162 90t-61 185q0 111 57.5 188t165.5 87v86h48v-84q73 -5 139 -28l-6 -103l-48 6l-6 48q-35 20 -79 25v-436q69 1 139 30v-67q-66 -25 -139 -30v-84h-48zM316 158v426q-45 -10 -74 -53t-38 -88t-9 -93q0 -65 31.5 -121.5t89.5 -70.5z" />
    <glyph glyph-name="sterling" unicode="&#xa3;" 
d="M139 0v84q46 12 75 55q6 10 11 19t8 21t4.5 19t2.5 22t1 19.5v23v21.5v75h-84v48h84v86q0 40 0.5 59t7.5 50.5t21 54.5q52 84 156 84q62 0 125 -36l-6 -100l-48 6l-6 52q-37 30 -73 30q-40 0 -63 -36q-3 -5 -6 -10.5t-4.5 -12t-3 -11.5t-2.5 -12.5t-1.5 -11.5t-0.5 -13
v-12v-13v-12v-142h103v-48h-103v-56q0 -75 -11 -105q-5 -17 -15 -33q-35 -55 -85 -79v-2h325v-84h-412z" />
    <glyph glyph-name="currency" unicode="&#xa4;" 
d="M180 191l-119 -119l-34 34l119 119q-46 52 -46 136q0 85 46 137l-119 119l34 34l119 -119q62 46 136 46q75 0 137 -46l118 119l34 -34l-118 -119q46 -52 46 -137q0 -84 -46 -136l118 -119l-34 -34l-118 119q-62 -46 -137 -46q-74 0 -136 46zM172 361q0 -59 42 -101.5
t102 -42.5t102.5 42.5t42.5 101.5q0 60 -42.5 102.5t-102.5 42.5t-102 -42.5t-42 -102.5z" />
    <glyph glyph-name="yen" unicode="&#xa5;" 
d="M274 190h-145v42h145v84h-145v42h145l-146 230l-56 81l-30 6l-6 48h213l-6 -48l-48 -6l157 -250l165 250l-60 6l-6 48h166l-6 -48l-30 -6l-72 -101l-139 -210h145v-42h-145v-84h145v-42h-145v-46l6 -90l42 -6l6 -48h-204l6 48l42 6l6 90v46z" />
    <glyph glyph-name="brokenbar" unicode="&#xa6;" horiz-adv-x="265" 
d="M96 -145v362h72v-362h-72zM96 410v361h72v-361h-72z" />
    <glyph glyph-name="section" unicode="&#xa7;" 
d="M370 350l-144 63q-36 -34 -36 -81q0 -58 58 -93l165 -74q36 46 36 91q0 59 -79 94zM99 -123l6 108l48 -6l6 -51q70 -43 156 -43q54 0 94 29.5t40 82.5q0 14 -4.5 26t-14.5 22t-18.5 17t-24.5 15t-25 11.5t-26.5 10.5l-22.5 9q-99 40 -133 64q-72 50 -72 125
q0 42 20.5 81.5t55.5 63.5q-34 16 -53.5 48.5t-19.5 70.5q0 41 19.5 79t53.5 61q58 40 160 40q92 0 168 -24l-6 -109l-48 6l-6 52q-57 27 -114 27q-55 0 -98.5 -28.5t-43.5 -80.5q0 -19 9 -35t18 -25.5t31 -20.5t30 -14.5t33 -12.5q38 -14 59 -23t53.5 -27t50 -36.5
t31 -47.5t13.5 -64q0 -76 -71 -140q37 -20 58.5 -55.5t21.5 -77.5q0 -77 -70 -128q-53 -40 -156 -40q-111 0 -208 40z" />
    <glyph glyph-name="dieresis" unicode="&#xa8;" horiz-adv-x="627" 
d="M175 627v84h84v-84h-84zM367 627v84h84v-84h-84z" />
    <glyph glyph-name="copyright" unicode="&#xa9;" horiz-adv-x="880" 
d="M440 741q157 0 268 -111.5t111 -268.5t-111 -268t-268 -111t-268.5 111t-111.5 268t111 268.5t269 111.5zM440 693q-137 0 -234.5 -97.5t-97.5 -234.5t97.5 -234t234.5 -97t234 97t97 234t-97 234.5t-234 97.5zM590 557l-6 -78l-36 6l-6 39q-38 15 -75 15q-75 0 -110 -50
t-35 -129q0 -67 41 -120t107 -53q63 0 114 30v-48q-69 -24 -127 -24q-92 0 -149.5 61.5t-57.5 154.5q0 90 55 153q56 61 154 61q54 0 131 -18z" />
    <glyph glyph-name="ordfeminine" unicode="&#xaa;" horiz-adv-x="428" 
d="M360 600v-127v-5q0 -14 0.5 -21.5t3 -18t10 -15.5t19.5 -5h10v-43q-28 -13 -53 -13q-56 0 -73 53q-56 -56 -127 -56q-48 0 -80.5 29.5t-32.5 76.5q0 65 61 103q48 29 157 29h20v11q0 49 -19 70q-24 25 -64 25q-48 0 -82 -30v-27h-49v75q61 30 145 30q82 0 118 -29
q17 -14 25.5 -34t9.5 -35t1 -43zM275 450v89h-16q-137 0 -137 -75q0 -26 17 -43t42 -17q22 0 50 14t44 32z" />
    <glyph glyph-name="guillemotleft" unicode="&#xab;" horiz-adv-x="554" 
d="M491 482l-138 -187l138 -187l-37 -30l-198 217l198 217zM298 482l-138 -187l138 -187l-37 -30l-198 217l198 217z" />
    <glyph glyph-name="logicalnot" unicode="&#xac;" 
d="M27 338v72h578v-240h-72v168h-506z" />
    <glyph glyph-name="uni00AD" unicode="&#xad;" horiz-adv-x="349" 
d="M60 265l6 60h223l-6 -60h-223z" />
    <glyph glyph-name="registered" unicode="&#xae;" 
d="M96 524q0 90 65 153.5t155 63.5t155 -63.5t65 -153.5t-65 -153.5t-155 -63.5t-155 63.5t-65 153.5zM144 524q0 -70 51 -119.5t121 -49.5q71 0 121.5 49.5t50.5 119.5q0 71 -50.5 120t-121.5 49q-70 0 -121 -49t-51 -120zM290 497v-96h-73v36h25v178h-25v36h33
q100 0 116 -6q44 -14 44 -60q0 -48 -48 -78l34 -70h29v-36h-65l-48 96h-22zM290 533h8q64 0 64 44q0 14 -5.5 22.5t-18 11.5t-19.5 3.5t-23 0.5h-6v-82z" />
    <glyph glyph-name="macron" unicode="&#xaf;" horiz-adv-x="627" 
d="M175 627v72h277v-72h-277z" />
    <glyph glyph-name="degree" unicode="&#xb0;" horiz-adv-x="283" 
d="M60 660q0 34 24 57.5t58 23.5t57.5 -23.5t23.5 -57.5t-23.5 -58t-57.5 -24t-58 24t-24 58zM96 660q0 -19 13.5 -32.5t32.5 -13.5q18 0 31.5 13.5t13.5 32.5t-13.5 32t-31.5 13q-19 0 -32.5 -13t-13.5 -32z" />
    <glyph glyph-name="plusminus" unicode="&#xb1;" 
d="M27 0v72h578v-72h-578zM280 145v181h-253v72h253v180h72v-180h253v-72h-253v-181h-72z" />
    <glyph glyph-name="twosuperior" unicode="&#xb2;" horiz-adv-x="428" 
d="M206 741q62 0 110 -24.5t48 -80.5q0 -19 -9 -37.5t-18 -29t-32 -25.5t-31 -19t-34 -18q-4 -2 -20.5 -10t-26 -14t-22 -15t-18 -20t-4.5 -23h221v-64h-301v64q17 33 44 56.5t70 51.5q61 40 78 65q13 18 13 37q0 58 -78 58q-42 0 -79 -18v-45h-48v87q57 24 137 24z" />
    <glyph glyph-name="threesuperior" unicode="&#xb3;" horiz-adv-x="428" 
d="M126 669v-30h-48v78q72 24 140 24q67 0 109 -21q20 -10 33.5 -28.5t13.5 -39.5q0 -40 -37.5 -65.5t-84.5 -34.5v-2q50 -5 85.5 -28.5t35.5 -68.5q0 -42 -34 -68q-43 -35 -123 -35q-62 0 -138 17v73h48v-27q33 -15 77 -15q33 0 56.5 13t23.5 43q0 35 -36 55q-37 20 -95 20
h-19v48h13q22 0 33.5 0.5t34.5 4t35.5 10t23 20t10.5 33.5q0 24 -20 36t-46 12q-51 0 -91 -24z" />
    <glyph glyph-name="acute" unicode="&#xb4;" horiz-adv-x="627" 
d="M324 771h111l-147 -144h-70z" />
    <glyph glyph-name="mu" unicode="&#xb5;" horiz-adv-x="675" 
d="M458 74l6 25h-6q-29 -47 -83 -79t-107 -32q-23 0 -52 22l6 -155h-102v531l-6 90l-42 6l-6 48l156 6l-6 -144v-208q0 -32 2 -49t9.5 -37t25.5 -29t48 -9q80 0 157 85v247l-6 84l-42 6l-6 48l156 6l-6 -144v-248l6 -90l42 -6l6 -48l-150 -6v80z" />
    <glyph glyph-name="paragraph" unicode="&#xb6;" 
d="M289 -145v506q-98 3 -157.5 56t-59.5 150q0 80 47 123q35 33 118 33h227l-6 -157v-711h-48v820h-73v-820h-48z" />
    <glyph glyph-name="periodcentered" unicode="&#xb7;" horiz-adv-x="316" 
d="M98 229v120h120v-120h-120z" />
    <glyph glyph-name="cedilla" unicode="&#xb8;" horiz-adv-x="627" 
d="M255 -182v38q20 -4 32 -4q49 0 49 34q0 20 -18.5 31.5t-41.5 14.5l42 68h44l-33 -52q77 -19 77 -73q0 -32 -28.5 -49t-63.5 -17q-25 0 -59 9z" />
    <glyph glyph-name="onesuperior" unicode="&#xb9;" horiz-adv-x="428" 
d="M175 675h-67l-6 48l157 12v-319l66 -6l6 -49h-229l6 49l67 6v259z" />
    <glyph glyph-name="ordmasculine" unicode="&#xba;" horiz-adv-x="428" 
d="M214 741q85 0 133 -54.5t48 -141.5t-48 -141.5t-133 -54.5t-133 54.5t-48 141.5t48 141.5t133 54.5zM214 693q-33 0 -54.5 -26.5t-29 -58t-7.5 -63.5t7.5 -63.5t29 -58t54.5 -26.5t54.5 26.5t29 58t7.5 63.5t-7.5 63.5t-29 58t-54.5 26.5z" />
    <glyph glyph-name="guillemotright" unicode="&#xbb;" horiz-adv-x="554" 
d="M63 108l138 187l-138 187l37 30l198 -217l-198 -217zM256 108l138 187l-138 187l37 30l198 -217l-198 -217z" />
    <glyph glyph-name="onequarter" unicode="&#xbc;" horiz-adv-x="876" 
d="M664 96h-181v58l181 213h84v-213h60v-58h-60v-42l48 -6l6 -48h-193l6 48l49 6v42zM546 154h118v139zM182 675h-67l-6 48l157 12v-319l66 -6l6 -49h-229l6 49l67 6v259zM122 -18l538 759h88l-538 -759h-88z" />
    <glyph glyph-name="onehalf" unicode="&#xbd;" horiz-adv-x="876" 
d="M155 675h-67l-6 48l157 12v-319l66 -6l6 -49h-229l6 49l67 6v259zM653 380q62 0 110 -24.5t48 -80.5q0 -19 -9 -37.5t-18 -29t-32 -25.5t-31 -19t-34 -18q-4 -2 -20.5 -10t-26 -14t-22 -15t-18 -20t-4.5 -23h221v-64h-301v64q17 33 44 56.5t70 51.5q61 40 78 65
q13 18 13 37q0 58 -78 58q-41 0 -79 -18v-45h-48v87q57 24 137 24zM83 -18l538 759h88l-538 -759h-88z" />
    <glyph glyph-name="threequarters" unicode="&#xbe;" horiz-adv-x="876" 
d="M664 96h-181v58l181 213h84v-213h60v-58h-60v-42l48 -6l6 -48h-193l6 48l49 6v42zM546 154h118v139zM134 -18l537 759h89l-538 -759h-88zM115 669v-30h-48v78q72 24 140 24q67 0 109 -21q20 -10 33.5 -28.5t13.5 -39.5q0 -40 -37.5 -65.5t-84.5 -34.5v-2
q50 -5 85.5 -28.5t35.5 -68.5q0 -42 -34 -68q-42 -35 -123 -35q-61 0 -138 17v73h48v-27q33 -15 77 -15q33 0 56.5 13t23.5 43q0 35 -36 55q-37 20 -95 20h-19v48h13q22 0 33.5 0.5t34.5 4t35.5 10t23 20t10.5 33.5q0 24 -20 36t-46 12q-50 0 -91 -24z" />
    <glyph glyph-name="questiondown" unicode="&#xbf;" horiz-adv-x="505" 
d="M342 337v-27q0 -44 -17 -79.5t-60 -78.5q-104 -104 -104 -192q0 -58 35 -90.5t94 -32.5t104 33l6 46l48 6l6 -100q-88 -33 -187 -33q-83 0 -145.5 41t-62.5 120q0 40 15.5 73t31 50t52.5 51q63 56 75.5 86.5t12.5 109.5v17h96zM246 434v96h96v-96h-96z" />
    <glyph glyph-name="Agrave" unicode="&#xc0;" horiz-adv-x="712" 
d="M179 217l-61 -163l48 -6l6 -48h-160l6 48l30 6l49 102l227 579h58l238 -602l38 -79l30 -6l6 -48h-200l6 48l48 6l-66 163h-303zM198 265h265l-133 338zM234 964h112l105 -144h-69z" />
    <glyph glyph-name="Aacute" unicode="&#xc1;" horiz-adv-x="712" 
d="M179 217l-61 -163l48 -6l6 -48h-160l6 48l30 6l49 102l227 579h58l238 -602l38 -79l30 -6l6 -48h-200l6 48l48 6l-66 163h-303zM198 265h265l-133 338zM367 964h111l-147 -144h-70z" />
    <glyph glyph-name="Acircumflex" unicode="&#xc2;" horiz-adv-x="712" 
d="M179 217l-61 -163l48 -6l6 -48h-160l6 48l30 6l49 102l227 579h58l238 -602l38 -79l30 -6l6 -48h-200l6 48l48 6l-66 163h-303zM198 265h265l-133 338zM356 916l-96 -96h-66l108 144h108l109 -144h-66z" />
    <glyph glyph-name="Atilde" unicode="&#xc3;" horiz-adv-x="712" 
d="M179 217l-61 -163l48 -6l6 -48h-160l6 48l30 6l49 102l227 579h58l238 -602l38 -79l30 -6l6 -48h-200l6 48l48 6l-66 163h-303zM198 265h265l-133 338zM368 912l26 -10q26 -10 39 -10q18 0 29.5 12t11.5 30h42q1 -51 -21.5 -83t-71.5 -32q-24 0 -79 22l-25 10
q-24 11 -40 11q-17 0 -29 -12.5t-11 -29.5h-42q-1 51 21.5 82.5t71.5 31.5q23 0 78 -22z" />
    <glyph glyph-name="Adieresis" unicode="&#xc4;" horiz-adv-x="712" 
d="M179 217l-61 -163l48 -6l6 -48h-160l6 48l30 6l49 102l227 579h58l238 -602l38 -79l30 -6l6 -48h-200l6 48l48 6l-66 163h-303zM198 265h265l-133 338zM218 820v84h84v-84h-84zM410 820v84h84v-84h-84z" />
    <glyph glyph-name="Aring" unicode="&#xc5;" horiz-adv-x="712" 
d="M179 217l-61 -163l48 -6l6 -48h-160l6 48l30 6l49 102l227 579h58l238 -602l38 -79l30 -6l6 -48h-200l6 48l48 6l-66 163h-303zM198 265h265l-133 338zM278 898q0 32 23 55t55 23t55.5 -23t23.5 -55t-23.5 -55t-55.5 -23t-55 23t-23 55zM308 898q0 -20 14 -34t34 -14
t34.5 14t14.5 34t-14.5 34t-34.5 14t-34 -14t-14 -34z" />
    <glyph glyph-name="AE" unicode="&#xc6;" horiz-adv-x="921" 
d="M891 0h-479l6 48l42 6l6 90v73h-248l-100 -163l48 -6l6 -48h-160l6 48l30 6l68 101l350 568h404l-6 -109l-48 6l-6 49l-103 6h-145v-272h254l-6 -54l-121 6h-127v-211l6 -90h164l99 6l6 54l48 6zM248 265h218v354z" />
    <glyph glyph-name="Ccedilla" unicode="&#xc7;" horiz-adv-x="708" 
d="M296 -182v38q20 -4 32 -4q49 0 49 34q0 20 -18.5 31.5t-41.5 14.5l33 54q-124 16 -199 105q-91 106 -91 275q0 74 22 146.5t65 123.5q89 105 265 105q85 0 208 -32l15 -4l-6 -115l-48 6l-6 51q-79 46 -158 46q-131 0 -196 -108q-59 -97 -59 -231q0 -133 72 -227t202 -94
q117 0 206 64v-57q-90 -58 -226 -58h-24l-22 -34q77 -19 77 -73q0 -32 -28.5 -49t-63.5 -17q-25 0 -59 9z" />
    <glyph glyph-name="Egrave" unicode="&#xc8;" horiz-adv-x="575" 
d="M545 0h-479l6 48l42 6l6 90v435l-6 90l-42 6l-6 48h458l-6 -109l-48 6l-6 49l-103 6h-145v-272h254l-6 -54l-121 6h-127v-211l6 -90h164l99 6l6 54l48 6zM165 964h112l105 -144h-69z" />
    <glyph glyph-name="Eacute" unicode="&#xc9;" horiz-adv-x="575" 
d="M545 0h-479l6 48l42 6l6 90v435l-6 90l-42 6l-6 48h458l-6 -109l-48 6l-6 49l-103 6h-145v-272h254l-6 -54l-121 6h-127v-211l6 -90h164l99 6l6 54l48 6zM298 964h111l-147 -144h-70z" />
    <glyph glyph-name="Ecircumflex" unicode="&#xca;" horiz-adv-x="575" 
d="M545 0h-479l6 48l42 6l6 90v435l-6 90l-42 6l-6 48h458l-6 -109l-48 6l-6 49l-103 6h-145v-272h254l-6 -54l-121 6h-127v-211l6 -90h164l99 6l6 54l48 6zM287 916l-96 -96h-66l108 144h108l109 -144h-66z" />
    <glyph glyph-name="Edieresis" unicode="&#xcb;" horiz-adv-x="575" 
d="M545 0h-479l6 48l42 6l6 90v435l-6 90l-42 6l-6 48h458l-6 -109l-48 6l-6 49l-103 6h-145v-272h254l-6 -54l-121 6h-127v-211l6 -90h164l99 6l6 54l48 6zM149 820v84h84v-84h-84zM341 820v84h84v-84h-84z" />
    <glyph glyph-name="Igrave" unicode="&#xcc;" horiz-adv-x="337" 
d="M120 144v435l-6 90l-42 6l-6 48h204l-6 -48l-42 -6l-6 -90v-435l6 -90l42 -6l6 -48h-204l6 48l42 6zM46 964h112l105 -144h-69z" />
    <glyph glyph-name="Iacute" unicode="&#xcd;" horiz-adv-x="337" 
d="M120 144v435l-6 90l-42 6l-6 48h204l-6 -48l-42 -6l-6 -90v-435l6 -90l42 -6l6 -48h-204l6 48l42 6zM179 964h111l-147 -144h-70z" />
    <glyph glyph-name="Icircumflex" unicode="&#xce;" horiz-adv-x="337" 
d="M120 144v435l-6 90l-42 6l-6 48h204l-6 -48l-42 -6l-6 -90v-435l6 -90l42 -6l6 -48h-204l6 48l42 6zM168 916l-96 -96h-66l108 144h108l109 -144h-66z" />
    <glyph glyph-name="Idieresis" unicode="&#xcf;" horiz-adv-x="337" 
d="M120 144v435l-6 90l-42 6l-6 48h204l-6 -48l-42 -6l-6 -90v-435l6 -90l42 -6l6 -48h-204l6 48l42 6zM30 820v84h84v-84h-84zM222 820v84h84v-84h-84z" />
    <glyph glyph-name="Eth" unicode="&#xd0;" horiz-adv-x="777" 
d="M222 60l103 -6q151 0 222 90q68 85 68 227q0 153 -91 237q-46 43 -102.5 55t-140.5 12h-65v-277h170v-55h-170v-186zM66 0l6 48l42 6l6 103v186h-108v55h108v192l-6 79l-42 6l-6 48h305q168 0 255 -88q91 -91 91 -257q0 -171 -91 -274q-51 -59 -116.5 -81.5t-152.5 -22.5
h-291z" />
    <glyph glyph-name="Ntilde" unicode="&#xd1;" horiz-adv-x="762" 
d="M120 144v435l-6 90l-42 6l-6 48h129l379 -589v445l-6 90l-42 6l-6 48h176l-6 -48l-42 -6l-6 -90v-588h-82l-372 579v-426l6 -90l42 -6l6 -48h-176l6 48l42 6zM393 912l26 -10q26 -10 39 -10q18 0 29.5 12t11.5 30h42q1 -51 -21.5 -83t-71.5 -32q-24 0 -79 22l-25 10
q-24 11 -40 11q-17 0 -29 -12.5t-11 -29.5h-42q-1 51 21.5 82.5t71.5 31.5q23 0 78 -22z" />
    <glyph glyph-name="Ograve" unicode="&#xd2;" horiz-adv-x="789" 
d="M395 -18q-160 0 -252 111q-83 97 -83 268q0 167 79 264q93 116 256 116q155 0 248 -106q86 -99 86 -274q0 -167 -78 -263q-94 -116 -256 -116zM395 30q64 0 111 30.5t72 81t37 105.5t12 114q0 60 -12 115t-37 105.5t-72 81t-111 30.5t-111.5 -30.5t-72.5 -81t-37 -105.5
t-12 -115t12 -114.5t37 -105t72.5 -81t111.5 -30.5zM272 964h112l105 -144h-69z" />
    <glyph glyph-name="Oacute" unicode="&#xd3;" horiz-adv-x="789" 
d="M395 -18q-160 0 -252 111q-83 97 -83 268q0 167 79 264q93 116 256 116q155 0 248 -106q86 -99 86 -274q0 -167 -78 -263q-94 -116 -256 -116zM395 30q64 0 111 30.5t72 81t37 105.5t12 114q0 60 -12 115t-37 105.5t-72 81t-111 30.5t-111.5 -30.5t-72.5 -81t-37 -105.5
t-12 -115t12 -114.5t37 -105t72.5 -81t111.5 -30.5zM405 964h111l-147 -144h-70z" />
    <glyph glyph-name="Ocircumflex" unicode="&#xd4;" horiz-adv-x="789" 
d="M395 -18q-160 0 -252 111q-83 97 -83 268q0 167 79 264q93 116 256 116q155 0 248 -106q86 -99 86 -274q0 -167 -78 -263q-94 -116 -256 -116zM395 30q64 0 111 30.5t72 81t37 105.5t12 114q0 60 -12 115t-37 105.5t-72 81t-111 30.5t-111.5 -30.5t-72.5 -81t-37 -105.5
t-12 -115t12 -114.5t37 -105t72.5 -81t111.5 -30.5zM394 916l-96 -96h-66l108 144h108l109 -144h-66z" />
    <glyph glyph-name="Otilde" unicode="&#xd5;" horiz-adv-x="789" 
d="M395 -18q-160 0 -252 111q-83 97 -83 268q0 167 79 264q93 116 256 116q155 0 248 -106q86 -99 86 -274q0 -167 -78 -263q-94 -116 -256 -116zM395 30q64 0 111 30.5t72 81t37 105.5t12 114q0 60 -12 115t-37 105.5t-72 81t-111 30.5t-111.5 -30.5t-72.5 -81t-37 -105.5
t-12 -115t12 -114.5t37 -105t72.5 -81t111.5 -30.5zM406 912l26 -10q26 -10 39 -10q18 0 29.5 12t11.5 30h42q1 -51 -21.5 -83t-71.5 -32q-24 0 -79 22l-25 10q-24 11 -40 11q-17 0 -29 -12.5t-11 -29.5h-42q-1 51 21.5 82.5t71.5 31.5q23 0 78 -22z" />
    <glyph glyph-name="Odieresis" unicode="&#xd6;" horiz-adv-x="789" 
d="M395 -18q-160 0 -252 111q-83 97 -83 268q0 167 79 264q93 116 256 116q155 0 248 -106q86 -99 86 -274q0 -167 -78 -263q-94 -116 -256 -116zM395 30q64 0 111 30.5t72 81t37 105.5t12 114q0 60 -12 115t-37 105.5t-72 81t-111 30.5t-111.5 -30.5t-72.5 -81t-37 -105.5
t-12 -115t12 -114.5t37 -105t72.5 -81t111.5 -30.5zM256 820v84h84v-84h-84zM448 820v84h84v-84h-84z" />
    <glyph glyph-name="multiply" unicode="&#xd7;" 
d="M27 51l238 238l-238 238l51 51l238 -238l238 238l51 -51l-238 -238l238 -238l-51 -51l-238 238l-238 -238z" />
    <glyph glyph-name="Oslash" unicode="&#xd8;" horiz-adv-x="789" 
d="M60 -18l85 107q-85 104 -85 279q0 167 88.5 270t252.5 103q126 0 203 -70l56 70h69l-84 -107q84 -92 84 -279q0 -164 -82 -262q-92 -111 -252 -111q-122 0 -210 70l-56 -70h-69zM201 160l355 449q-60 84 -168 84q-50 0 -90 -21t-64.5 -54.5t-41.5 -78.5t-23.5 -89
t-6.5 -89q0 -116 39 -201zM588 562l-355 -449q62 -83 168 -83q50 0 90 21t64.5 54.5t41.5 78t23.5 88.5t6.5 89q0 113 -39 201z" />
    <glyph glyph-name="Ugrave" unicode="&#xd9;" horiz-adv-x="729" 
d="M108 281v298l-6 90l-42 6l-6 48h204l-6 -48l-42 -6l-6 -90v-277q0 -128 17 -173q17 -47 60 -73t95 -26q44 0 83.5 18.5t60.5 53.5q5 8 9 17t6.5 19.5t4.5 19t3.5 21.5t2 20t1 22t0.5 20v21v19v298l-6 90l-42 6l-6 48h182l-6 -48l-42 -6l-6 -90v-272v-23.5v-24t-0.5 -22
t-1 -23.5t-2 -22t-3.5 -23t-5 -21t-7 -22.5t-9.5 -21t-11.5 -21.5q-35 -56 -87.5 -78.5t-124.5 -22.5q-141 0 -208 82q-33 40 -43 92.5t-10 124.5zM242 964h112l105 -144h-69z" />
    <glyph glyph-name="Uacute" unicode="&#xda;" horiz-adv-x="729" 
d="M108 281v298l-6 90l-42 6l-6 48h204l-6 -48l-42 -6l-6 -90v-277q0 -128 17 -173q17 -47 60 -73t95 -26q44 0 83.5 18.5t60.5 53.5q5 8 9 17t6.5 19.5t4.5 19t3.5 21.5t2 20t1 22t0.5 20v21v19v298l-6 90l-42 6l-6 48h182l-6 -48l-42 -6l-6 -90v-272v-23.5v-24t-0.5 -22
t-1 -23.5t-2 -22t-3.5 -23t-5 -21t-7 -22.5t-9.5 -21t-11.5 -21.5q-35 -56 -87.5 -78.5t-124.5 -22.5q-141 0 -208 82q-33 40 -43 92.5t-10 124.5zM375 964h111l-147 -144h-70z" />
    <glyph glyph-name="Ucircumflex" unicode="&#xdb;" horiz-adv-x="729" 
d="M108 281v298l-6 90l-42 6l-6 48h204l-6 -48l-42 -6l-6 -90v-277q0 -128 17 -173q17 -47 60 -73t95 -26q44 0 83.5 18.5t60.5 53.5q5 8 9 17t6.5 19.5t4.5 19t3.5 21.5t2 20t1 22t0.5 20v21v19v298l-6 90l-42 6l-6 48h182l-6 -48l-42 -6l-6 -90v-272v-23.5v-24t-0.5 -22
t-1 -23.5t-2 -22t-3.5 -23t-5 -21t-7 -22.5t-9.5 -21t-11.5 -21.5q-35 -56 -87.5 -78.5t-124.5 -22.5q-141 0 -208 82q-33 40 -43 92.5t-10 124.5zM364 916l-96 -96h-66l108 144h108l109 -144h-66z" />
    <glyph glyph-name="Udieresis" unicode="&#xdc;" horiz-adv-x="729" 
d="M108 281v298l-6 90l-42 6l-6 48h204l-6 -48l-42 -6l-6 -90v-277q0 -128 17 -173q17 -47 60 -73t95 -26q44 0 83.5 18.5t60.5 53.5q5 8 9 17t6.5 19.5t4.5 19t3.5 21.5t2 20t1 22t0.5 20v21v19v298l-6 90l-42 6l-6 48h182l-6 -48l-42 -6l-6 -90v-272v-23.5v-24t-0.5 -22
t-1 -23.5t-2 -22t-3.5 -23t-5 -21t-7 -22.5t-9.5 -21t-11.5 -21.5q-35 -56 -87.5 -78.5t-124.5 -22.5q-141 0 -208 82q-33 40 -43 92.5t-10 124.5zM226 820v84h84v-84h-84zM418 820v84h84v-84h-84z" />
    <glyph glyph-name="Yacute" unicode="&#xdd;" horiz-adv-x="657" 
d="M281 321l-159 267l-53 81l-30 6l-6 48h208l-6 -48l-48 -6l167 -282l171 282l-48 6l-6 48h160l-6 -48l-30 -6l-68 -101l-150 -247v-177l6 -90l42 -6l6 -48h-204l6 48l42 6l6 90v177zM339 964h111l-147 -144h-70z" />
    <glyph glyph-name="Thorn" unicode="&#xde;" horiz-adv-x="581" 
d="M216 579h115q36 0 56 -1.5t47.5 -10t50.5 -24.5q69 -50 69 -153q0 -133 -101 -191q-73 -42 -219 -42h-18v-13l6 -90l42 -6l6 -48h-204l6 48l42 6l6 90v435l-6 90l-42 6l-6 48h204l-6 -48l-42 -6zM216 205h20q38 0 58 1.5t48.5 10.5t50.5 27q59 51 59 145q0 47 -13 76.5
t-41 43.5t-57 18t-76 4h-49v-326z" />
    <glyph glyph-name="germandbls" unicode="&#xdf;" horiz-adv-x="639" 
d="M420 371l67 -57q54 -44 69 -67q34 -48 34 -102q0 -66 -47 -111.5t-113 -45.5q-80 0 -129 24l6 102l48 -6l6 -51q34 -21 69 -21q37 0 59.5 21.5t22.5 59.5q0 24 -11.5 45.5t-22 32.5t-34.5 32l-74 65q-26 22 -40 36.5t-26.5 38.5t-12.5 51q0 40 40 95q50 70 50 133
q0 37 -20.5 63t-57.5 26q-42 0 -66 -33q-3 -5 -6 -10.5t-5 -10t-3.5 -11.5t-2.5 -11t-2 -12.5t-1.5 -12t-0.5 -12.5v-11.5v-12v-11.5v-443l7 -90l30 -6l6 -48h-193l6 48l42 6l6 90v391q0 128 23 169q45 79 158 79q77 0 122 -30q55 -38 55 -97q0 -25 -10 -48t-20.5 -36
t-33.5 -37q-2 -2 -11 -11.5t-12.5 -13t-10 -12t-9.5 -14.5t-5.5 -14.5t-2.5 -16.5q0 -7 1.5 -14t3.5 -12t6.5 -11.5t7 -9.5t9.5 -9.5t9 -8.5t10.5 -9t9.5 -8z" />
    <glyph glyph-name="agrave" unicode="&#xe0;" horiz-adv-x="561" 
d="M350 99v166h-14q-189 0 -189 -114q0 -42 27 -69.5t70 -27.5q45 0 106 45zM338 313h12v33q0 88 -18 113q-27 35 -82 35q-59 0 -105 -43l-6 -53h-48l-6 99q98 45 190 45q81 0 130 -43q20 -18 29.5 -40.5t10.5 -38t1 -49.5v-212q0 -22 0.5 -33t4.5 -33.5t15 -33.5t28 -11
q9 0 25 4l6 -52q-34 -12 -63 -12q-40 0 -60.5 21.5t-29.5 63.5q-42 -43 -81.5 -64t-91.5 -21q-64 0 -109 42.5t-45 106.5q0 102 104 150q58 26 189 26zM158 771h112l105 -144h-69z" />
    <glyph glyph-name="aacute" unicode="&#xe1;" horiz-adv-x="561" 
d="M350 99v166h-14q-189 0 -189 -114q0 -42 27 -69.5t70 -27.5q45 0 106 45zM338 313h12v33q0 88 -18 113q-27 35 -82 35q-59 0 -105 -43l-6 -53h-48l-6 99q98 45 190 45q81 0 130 -43q20 -18 29.5 -40.5t10.5 -38t1 -49.5v-212q0 -22 0.5 -33t4.5 -33.5t15 -33.5t28 -11
q9 0 25 4l6 -52q-34 -12 -63 -12q-40 0 -60.5 21.5t-29.5 63.5q-42 -43 -81.5 -64t-91.5 -21q-64 0 -109 42.5t-45 106.5q0 102 104 150q58 26 189 26zM291 771h111l-147 -144h-70z" />
    <glyph glyph-name="acircumflex" unicode="&#xe2;" horiz-adv-x="561" 
d="M350 99v166h-14q-189 0 -189 -114q0 -42 27 -69.5t70 -27.5q45 0 106 45zM338 313h12v33q0 88 -18 113q-27 35 -82 35q-59 0 -105 -43l-6 -53h-48l-6 99q98 45 190 45q81 0 130 -43q20 -18 29.5 -40.5t10.5 -38t1 -49.5v-212q0 -22 0.5 -33t4.5 -33.5t15 -33.5t28 -11
q9 0 25 4l6 -52q-34 -12 -63 -12q-40 0 -60.5 21.5t-29.5 63.5q-42 -43 -81.5 -64t-91.5 -21q-64 0 -109 42.5t-45 106.5q0 102 104 150q58 26 189 26zM280 723l-96 -96h-66l108 144h108l109 -144h-66z" />
    <glyph glyph-name="atilde" unicode="&#xe3;" horiz-adv-x="561" 
d="M350 99v166h-14q-189 0 -189 -114q0 -42 27 -69.5t70 -27.5q45 0 106 45zM338 313h12v33q0 88 -18 113q-27 35 -82 35q-59 0 -105 -43l-6 -53h-48l-6 99q98 45 190 45q81 0 130 -43q20 -18 29.5 -40.5t10.5 -38t1 -49.5v-212q0 -22 0.5 -33t4.5 -33.5t15 -33.5t28 -11
q9 0 25 4l6 -52q-34 -12 -63 -12q-40 0 -60.5 21.5t-29.5 63.5q-42 -43 -81.5 -64t-91.5 -21q-64 0 -109 42.5t-45 106.5q0 102 104 150q58 26 189 26zM292 719l26 -10q26 -10 39 -10q18 0 29.5 12t11.5 30h42q1 -51 -21.5 -83t-71.5 -32q-24 0 -79 22l-25 10q-24 11 -40 11
q-17 0 -29 -12.5t-11 -29.5h-42q-1 51 21.5 82.5t71.5 31.5q23 0 78 -22z" />
    <glyph glyph-name="adieresis" unicode="&#xe4;" horiz-adv-x="561" 
d="M350 99v166h-14q-189 0 -189 -114q0 -42 27 -69.5t70 -27.5q45 0 106 45zM338 313h12v33q0 88 -18 113q-27 35 -82 35q-59 0 -105 -43l-6 -53h-48l-6 99q98 45 190 45q81 0 130 -43q20 -18 29.5 -40.5t10.5 -38t1 -49.5v-212q0 -22 0.5 -33t4.5 -33.5t15 -33.5t28 -11
q9 0 25 4l6 -52q-34 -12 -63 -12q-40 0 -60.5 21.5t-29.5 63.5q-42 -43 -81.5 -64t-91.5 -21q-64 0 -109 42.5t-45 106.5q0 102 104 150q58 26 189 26zM142 627v84h84v-84h-84zM334 627v84h84v-84h-84z" />
    <glyph glyph-name="aring" unicode="&#xe5;" horiz-adv-x="561" 
d="M350 99v166h-14q-189 0 -189 -114q0 -42 27 -69.5t70 -27.5q45 0 106 45zM338 313h12v33q0 88 -18 113q-27 35 -82 35q-59 0 -105 -43l-6 -53h-48l-6 99q98 45 190 45q81 0 130 -43q20 -18 29.5 -40.5t10.5 -38t1 -49.5v-212q0 -22 0.5 -33t4.5 -33.5t15 -33.5t28 -11
q9 0 25 4l6 -52q-34 -12 -63 -12q-40 0 -60.5 21.5t-29.5 63.5q-42 -43 -81.5 -64t-91.5 -21q-64 0 -109 42.5t-45 106.5q0 102 104 150q58 26 189 26zM202 705q0 32 23 55t55 23t55.5 -23t23.5 -55t-23.5 -55t-55.5 -23t-55 23t-23 55zM232 705q0 -20 14 -34t34 -14
t34.5 14t14.5 34t-14.5 34t-34.5 14t-34 -14.5t-14 -33.5z" />
    <glyph glyph-name="ae" unicode="&#xe6;" horiz-adv-x="819" 
d="M759 277h-329q2 -82 23 -128q20 -42 61 -68.5t87 -26.5q86 0 158 42v-72q-87 -36 -167 -36q-149 0 -216 102q-33 -46 -83.5 -74t-105.5 -28q-69 0 -113 47t-44 116q0 106 107 148q55 23 188 23h13v25q0 87 -19 112q-26 35 -81 35q-59 0 -105 -43l-6 -53h-48l-6 99
q98 45 190 45q105 0 146 -64q61 64 155 64q101 0 154 -80q41 -60 41 -174v-11zM338 99v175h-13q-192 0 -192 -116q0 -44 27.5 -74t71.5 -30q45 0 106 45zM436 325h221q0 35 -3.5 60.5t-13 52.5t-31 41.5t-54.5 14.5q-40 0 -68 -28.5t-39 -65t-12 -75.5z" />
    <glyph glyph-name="ccedilla" unicode="&#xe7;" horiz-adv-x="539" 
d="M211 -182v38q20 -4 32 -4q49 0 49 34q0 20 -18.5 31.5t-41.5 14.5l37 60q-80 13 -132 69q-77 81 -77 204q0 120 66.5 198.5t183.5 78.5q69 0 160 -24l-6 -108l-48 6l-6 48q-41 30 -88 30q-41 0 -73.5 -22t-50.5 -57t-27 -73.5t-9 -76.5q0 -91 43.5 -151t131.5 -60
q68 0 133 30v-66q-72 -30 -148 -30h-12l-25 -40q77 -19 77 -73q0 -32 -28.5 -49t-63.5 -17q-25 0 -59 9z" />
    <glyph glyph-name="egrave" unicode="&#xe8;" horiz-adv-x="563" 
d="M491 277h-329q2 -82 23 -128q20 -42 61 -68.5t87 -26.5q86 0 158 42v-72q-87 -36 -167 -36q-121 0 -192.5 80t-71.5 203q0 113 63 192t173 79q101 0 154 -80q41 -60 41 -174v-11zM168 325h221q0 35 -3.5 60.5t-13 52.5t-31 41.5t-54.5 14.5q-40 0 -68 -28.5t-39 -65
t-12 -75.5zM159 771h112l105 -144h-69z" />
    <glyph glyph-name="eacute" unicode="&#xe9;" horiz-adv-x="563" 
d="M491 277h-329q2 -82 23 -128q20 -42 61 -68.5t87 -26.5q86 0 158 42v-72q-87 -36 -167 -36q-121 0 -192.5 80t-71.5 203q0 113 63 192t173 79q101 0 154 -80q41 -60 41 -174v-11zM168 325h221q0 35 -3.5 60.5t-13 52.5t-31 41.5t-54.5 14.5q-40 0 -68 -28.5t-39 -65
t-12 -75.5zM292 771h111l-147 -144h-70z" />
    <glyph glyph-name="ecircumflex" unicode="&#xea;" horiz-adv-x="563" 
d="M491 277h-329q2 -82 23 -128q20 -42 61 -68.5t87 -26.5q86 0 158 42v-72q-87 -36 -167 -36q-121 0 -192.5 80t-71.5 203q0 113 63 192t173 79q101 0 154 -80q41 -60 41 -174v-11zM168 325h221q0 35 -3.5 60.5t-13 52.5t-31 41.5t-54.5 14.5q-40 0 -68 -28.5t-39 -65
t-12 -75.5zM281 723l-96 -96h-66l108 144h108l109 -144h-66z" />
    <glyph glyph-name="edieresis" unicode="&#xeb;" horiz-adv-x="563" 
d="M491 277h-329q2 -82 23 -128q20 -42 61 -68.5t87 -26.5q86 0 158 42v-72q-87 -36 -167 -36q-121 0 -192.5 80t-71.5 203q0 113 63 192t173 79q101 0 154 -80q41 -60 41 -174v-11zM168 325h221q0 35 -3.5 60.5t-13 52.5t-31 41.5t-54.5 14.5q-40 0 -68 -28.5t-39 -65
t-12 -75.5zM143 627v84h84v-84h-84zM335 627v84h84v-84h-84z" />
    <glyph glyph-name="igrave" unicode="&#xec;" horiz-adv-x="337" 
d="M216 392v-248l6 -90l42 -6l6 -48h-204l6 48l42 6l6 90v248l-6 84l-42 6l-6 48l156 6zM46 771h112l105 -144h-69z" />
    <glyph glyph-name="iacute" unicode="&#xed;" horiz-adv-x="337" 
d="M216 392v-248l6 -90l42 -6l6 -48h-204l6 48l42 6l6 90v248l-6 84l-42 6l-6 48l156 6zM179 771h111l-147 -144h-70z" />
    <glyph glyph-name="icircumflex" unicode="&#xee;" horiz-adv-x="337" 
d="M216 392v-248l6 -90l42 -6l6 -48h-204l6 48l42 6l6 90v248l-6 84l-42 6l-6 48l156 6zM168 723l-96 -96h-66l108 144h108l109 -144h-66z" />
    <glyph glyph-name="idieresis" unicode="&#xef;" horiz-adv-x="337" 
d="M216 392v-248l6 -90l42 -6l6 -48h-204l6 48l42 6l6 90v248l-6 84l-42 6l-6 48l156 6zM30 627v84h84v-84h-84zM222 627v84h84v-84h-84z" />
    <glyph glyph-name="eth" unicode="&#xf0;" horiz-adv-x="627" 
d="M269 633l-134 -91l-28 40l122 82q-80 59 -167 59v48q134 5 238 -58l107 70l27 -38l-92 -62q101 -74 162.5 -177.5t61.5 -219.5q0 -122 -69 -210t-190 -88q-115 0 -180.5 76.5t-65.5 194.5q0 116 64.5 195t178.5 79q36 0 69 -12q-42 70 -104 112zM163 259
q0 -49 14.5 -97.5t50.5 -87t86 -38.5q44 0 75.5 22.5t46.5 60t21.5 75t6.5 79.5q0 38 -6.5 72.5t-21.5 67.5t-44.5 52.5t-70.5 19.5t-72.5 -21.5t-49.5 -56t-27 -72.5t-9 -76z" />
    <glyph glyph-name="ntilde" unicode="&#xf1;" horiz-adv-x="657" 
d="M216 456l-6 -25h6q29 47 83 79t107 32q73 0 113 -50q35 -43 35 -131v-217l6 -90l42 -6l6 -48h-204l6 48l42 6l6 90v202q0 26 -0.5 39.5t-5 32.5t-13 28.5t-25.5 16.5t-41 7q-30 0 -60.5 -13.5t-49 -28.5t-47.5 -42v-242l6 -90l42 -6l6 -48h-204l6 48l42 6l6 90v248l-6 84
l-42 6l-6 48l150 6v-80zM340 719l26 -10q26 -10 39 -10q18 0 29.5 12t11.5 30h42q1 -51 -21.5 -83t-71.5 -32q-24 0 -79 22l-25 10q-24 11 -40 11q-17 0 -29 -12.5t-11 -29.5h-42q-1 51 21.5 82.5t71.5 31.5q23 0 78 -22z" />
    <glyph glyph-name="ograve" unicode="&#xf2;" horiz-adv-x="627" 
d="M313 542q122 0 187.5 -76.5t65.5 -200.5t-65.5 -200.5t-187.5 -76.5q-121 0 -187 76.5t-66 200.5t66 200.5t187 76.5zM313 494q-52 0 -88 -39.5t-49.5 -89t-13.5 -100.5t13.5 -100.5t49.5 -89t88 -39.5t88 39.5t49.5 89t13.5 100.5t-13.5 100.5t-49.5 89t-88 39.5z
M191 771h112l105 -144h-69z" />
    <glyph glyph-name="oacute" unicode="&#xf3;" horiz-adv-x="627" 
d="M313 542q122 0 187.5 -76.5t65.5 -200.5t-65.5 -200.5t-187.5 -76.5q-121 0 -187 76.5t-66 200.5t66 200.5t187 76.5zM313 494q-52 0 -88 -39.5t-49.5 -89t-13.5 -100.5t13.5 -100.5t49.5 -89t88 -39.5t88 39.5t49.5 89t13.5 100.5t-13.5 100.5t-49.5 89t-88 39.5z
M324 771h111l-147 -144h-70z" />
    <glyph glyph-name="ocircumflex" unicode="&#xf4;" horiz-adv-x="627" 
d="M313 542q122 0 187.5 -76.5t65.5 -200.5t-65.5 -200.5t-187.5 -76.5q-121 0 -187 76.5t-66 200.5t66 200.5t187 76.5zM313 494q-52 0 -88 -39.5t-49.5 -89t-13.5 -100.5t13.5 -100.5t49.5 -89t88 -39.5t88 39.5t49.5 89t13.5 100.5t-13.5 100.5t-49.5 89t-88 39.5z
M313 723l-96 -96h-66l108 144h108l109 -144h-66z" />
    <glyph glyph-name="otilde" unicode="&#xf5;" horiz-adv-x="627" 
d="M313 542q122 0 187.5 -76.5t65.5 -200.5t-65.5 -200.5t-187.5 -76.5q-121 0 -187 76.5t-66 200.5t66 200.5t187 76.5zM313 494q-52 0 -88 -39.5t-49.5 -89t-13.5 -100.5t13.5 -100.5t49.5 -89t88 -39.5t88 39.5t49.5 89t13.5 100.5t-13.5 100.5t-49.5 89t-88 39.5z
M325 719l26 -10q26 -10 39 -10q18 0 29.5 12t11.5 30h42q1 -51 -21.5 -83t-71.5 -32q-24 0 -79 22l-25 10q-24 11 -40 11q-17 0 -29 -12.5t-11 -29.5h-42q-1 51 21.5 82.5t71.5 31.5q23 0 78 -22z" />
    <glyph glyph-name="odieresis" unicode="&#xf6;" horiz-adv-x="627" 
d="M313 542q122 0 187.5 -76.5t65.5 -200.5t-65.5 -200.5t-187.5 -76.5q-121 0 -187 76.5t-66 200.5t66 200.5t187 76.5zM313 494q-52 0 -88 -39.5t-49.5 -89t-13.5 -100.5t13.5 -100.5t49.5 -89t88 -39.5t88 39.5t49.5 89t13.5 100.5t-13.5 100.5t-49.5 89t-88 39.5z
M175 627v84h84v-84h-84zM367 627v84h84v-84h-84z" />
    <glyph glyph-name="divide" unicode="&#xf7;" 
d="M262 36v108h108v-108h-108zM27 253v72h578v-72h-578zM262 434v108h108v-108h-108z" />
    <glyph glyph-name="oslash" unicode="&#xf8;" horiz-adv-x="627" 
d="M60 -12l62 78q-62 83 -62 199q0 124 66 200.5t187 76.5q84 0 151 -42l33 42h69l-61 -78q61 -73 61 -199q0 -120 -64.5 -198.5t-181.5 -78.5q-97 0 -157 42l-34 -42h-69zM182 143l232 293q-17 26 -44.5 42t-56.5 16q-52 0 -88 -39.5t-49.5 -89t-13.5 -100.5q0 -57 20 -122
zM444 388l-231 -294q39 -58 100 -58q41 0 72 23t47.5 60.5t24 76t7.5 76.5q0 62 -20 116z" />
    <glyph glyph-name="ugrave" unicode="&#xf9;" horiz-adv-x="657" 
d="M440 74l6 25h-6q-29 -47 -83 -79t-107 -32q-73 0 -113 50q-35 43 -35 131v217l-6 90l-42 6l-6 48l156 6l-6 -144v-208q0 -32 2 -49t9.5 -37t25.5 -29t48 -9q80 0 157 85v247l-6 84l-42 6l-6 48l156 6l-6 -144v-248l6 -90l42 -6l6 -48l-150 -6v80zM206 771h112l105 -144
h-69z" />
    <glyph glyph-name="uacute" unicode="&#xfa;" horiz-adv-x="657" 
d="M440 74l6 25h-6q-29 -47 -83 -79t-107 -32q-73 0 -113 50q-35 43 -35 131v217l-6 90l-42 6l-6 48l156 6l-6 -144v-208q0 -32 2 -49t9.5 -37t25.5 -29t48 -9q80 0 157 85v247l-6 84l-42 6l-6 48l156 6l-6 -144v-248l6 -90l42 -6l6 -48l-150 -6v80zM339 771h111l-147 -144
h-70z" />
    <glyph glyph-name="ucircumflex" unicode="&#xfb;" horiz-adv-x="657" 
d="M440 74l6 25h-6q-29 -47 -83 -79t-107 -32q-73 0 -113 50q-35 43 -35 131v217l-6 90l-42 6l-6 48l156 6l-6 -144v-208q0 -32 2 -49t9.5 -37t25.5 -29t48 -9q80 0 157 85v247l-6 84l-42 6l-6 48l156 6l-6 -144v-248l6 -90l42 -6l6 -48l-150 -6v80zM328 723l-96 -96h-66
l108 144h108l109 -144h-66z" />
    <glyph glyph-name="udieresis" unicode="&#xfc;" horiz-adv-x="657" 
d="M440 74l6 25h-6q-29 -47 -83 -79t-107 -32q-73 0 -113 50q-35 43 -35 131v217l-6 90l-42 6l-6 48l156 6l-6 -144v-208q0 -32 2 -49t9.5 -37t25.5 -29t48 -9q80 0 157 85v247l-6 84l-42 6l-6 48l156 6l-6 -144v-248l6 -90l42 -6l6 -48l-150 -6v80zM190 627v84h84v-84h-84z
M382 627v84h84v-84h-84z" />
    <glyph glyph-name="yacute" unicode="&#xfd;" horiz-adv-x="607" 
d="M122 -193l149 193l-166 397l-39 79l-30 6l-6 48h201l-6 -48l-48 -6l148 -353l157 353l-48 6l-6 48h149l-6 -48l-30 -6l-52 -101l-252 -568h-115zM314 771h111l-147 -144h-70z" />
    <glyph glyph-name="thorn" unicode="&#xfe;" horiz-adv-x="666" 
d="M120 -49v589l-6 84l-42 6l-6 48l156 6l-6 -144v-84l-6 -25h6q32 50 81 80.5t106 30.5q69 0 115 -41.5t63.5 -98t17.5 -123.5q0 -54 -12.5 -104t-38 -93t-70 -68.5t-102.5 -25.5q-97 0 -160 72h-6l6 -109l6 -90l42 -6l6 -48h-204l6 48l42 6zM216 383v-269q67 -60 149 -60
q49 0 80.5 35.5t41.5 78t10 91.5q0 37 -5 69.5t-17.5 67t-39.5 54.5t-66 20q-89 0 -153 -87z" />
    <glyph glyph-name="ydieresis" unicode="&#xff;" horiz-adv-x="607" 
d="M122 -193l149 193l-166 397l-39 79l-30 6l-6 48h201l-6 -48l-48 -6l148 -353l157 353l-48 6l-6 48h149l-6 -48l-30 -6l-52 -101l-252 -568h-115zM165 627v84h84v-84h-84zM357 627v84h84v-84h-84z" />
    <glyph glyph-name="dotlessi" unicode="&#x131;" horiz-adv-x="337" 
d="M216 392v-248l6 -90l42 -6l6 -48h-204l6 48l42 6l6 90v248l-6 84l-42 6l-6 48l156 6z" />
    <glyph glyph-name="Lslash" unicode="&#x141;" horiz-adv-x="572" 
d="M120 144v172l-108 -60v63l108 59v201l-6 90l-42 6l-6 48h204l-6 -48l-42 -6l-6 -90v-149l109 58v-62l-109 -59v-223l7 -90h163l102 6l6 67l48 6l6 -133h-482l6 48l42 6z" />
    <glyph glyph-name="lslash" unicode="&#x142;" horiz-adv-x="337" 
d="M13 345l107 58v230l-6 84l-42 6l-6 48l156 6l-6 -144v-178l110 58v-61l-110 -59v-249l6 -90l42 -6l6 -48h-204l6 48l42 6l6 90v197l-107 -59v63z" />
    <glyph glyph-name="OE" unicode="&#x152;" horiz-adv-x="1015" 
d="M560 0v33q-69 -51 -172 -51q-154 0 -245 111q-83 97 -83 268q0 165 78 263q93 117 250 117q103 0 172 -51v33h404l-6 -109l-48 6l-6 49l-103 6h-145v-272h254l-6 -54l-121 6h-127v-211l6 -90h164l99 6l6 54l48 6l6 -120h-425zM560 307v109q0 35 -0.5 56t-4 54t-10 53.5
t-19 44.5t-30.5 37.5t-45.5 22.5t-62.5 9q-62 0 -108 -31.5t-70.5 -82.5t-36 -106t-11.5 -112t11.5 -112t36.5 -106t71 -82t107 -31q35 0 62.5 9t45.5 22.5t30.5 37.5t19 44.5t10 53.5t4 54t0.5 56z" />
    <glyph glyph-name="oe" unicode="&#x153;" horiz-adv-x="913" 
d="M301 494q-52 0 -88 -39.5t-49.5 -89t-13.5 -100.5t13.5 -100.5t49.5 -89t88 -39.5q40 0 67.5 23t39.5 61.5t16.5 72.5t4.5 72t-4.5 72t-16.5 72.5t-39.5 61.5t-67.5 23zM531 325h221q0 35 -3.5 60.5t-13 52.5t-31 41.5t-54.5 14.5q-40 0 -68 -28.5t-39 -65t-12 -75.5z
M854 277h-329q2 -82 23 -128q20 -42 61 -68.5t87 -26.5q86 0 158 42v-72q-87 -36 -167 -36q-139 0 -212 101q-64 -101 -174 -101q-121 0 -187 76.5t-66 200.5t66 200.5t187 76.5t173 -104q26 49 77 76.5t108 27.5q101 0 154 -80q41 -60 41 -174v-11z" />
    <glyph glyph-name="Scaron" unicode="&#x160;" horiz-adv-x="554" 
d="M63 15l6 121l48 -6l6 -49q77 -51 137 -51q63 0 105 37.5t42 98.5q0 31 -10 55t-28.5 41.5t-39 31t-46.5 28.5q-4 2 -5.5 3t-4.5 2.5l-5 2.5q-39 22 -55 31.5t-49 33.5t-47.5 42.5t-28 48.5t-13.5 63q0 79 60 137q56 55 148 55q91 0 184 -30l-6 -112l-48 6l-6 49
q-64 39 -125 39q-48 0 -80.5 -36t-32.5 -85q0 -28 9.5 -50t32.5 -41.5t36.5 -28t46.5 -27.5q102 -59 134 -84q75 -58 75 -151q0 -94 -69.5 -151t-165.5 -57q-84 0 -205 33zM440 964l-109 -144h-108l-108 144h66l96 -96l97 96h66z" />
    <glyph glyph-name="scaron" unicode="&#x161;" horiz-adv-x="528" 
d="M80 27l6 118l48 -6l6 -55q63 -48 124 -48q42 0 73 23t31 63q0 21 -7.5 36.5t-26.5 27.5t-29 17t-37 15q-7 3 -10 4q-35 14 -51.5 21t-45 23.5t-42 32t-25 41.5t-11.5 57q0 66 55 105.5t124 39.5q86 0 164 -30l-6 -114l-48 6l-6 54q-51 36 -103 36q-35 0 -62.5 -22.5
t-27.5 -56.5q0 -36 30 -60q24 -19 106 -51q82 -34 109 -56q46 -38 46 -100q0 -78 -61 -119t-143 -41q-100 0 -180 39zM427 771l-109 -144h-108l-108 144h66l96 -96l97 96h66z" />
    <glyph glyph-name="Ydieresis" unicode="&#x178;" horiz-adv-x="657" 
d="M281 321l-159 267l-53 81l-30 6l-6 48h208l-6 -48l-48 -6l167 -282l171 282l-48 6l-6 48h160l-6 -48l-30 -6l-68 -101l-150 -247v-177l6 -90l42 -6l6 -48h-204l6 48l42 6l6 90v177zM190 820v84h84v-84h-84zM382 820v84h84v-84h-84z" />
    <glyph glyph-name="Zcaron" unicode="&#x17d;" horiz-adv-x="645" 
d="M64 0v48l392 627h-235l-79 -12l-6 -61l-48 -6l-6 127h480v-48l-387 -621h231l102 12l6 55l48 6l6 -127h-504zM485 964l-109 -144h-108l-108 144h66l96 -96l97 96h66z" />
    <glyph glyph-name="zcaron" unicode="&#x17e;" horiz-adv-x="617" 
d="M78 0v48l333 434h-182l-79 -6l-6 -54l-48 -6l-6 114h435v-48l-328 -428h201l78 6l6 48l48 6l6 -114h-458zM471 771l-109 -144h-108l-108 144h66l96 -96l97 96h66z" />
    <glyph glyph-name="florin" unicode="&#x192;" 
d="M348 472l-13 -65h118v-48h-128l-100 -504l-105 -6l38 163l69 347h-99v48h109l5 25q25 135 71 203q69 106 188 106q43 0 93 -15l-6 -115l-48 6l-6 55q-32 15 -61 15q-20 0 -36 -7.5t-28 -24t-20.5 -31t-15.5 -40.5l-10.5 -39t-8.5 -40.5t-6 -32.5z" />
    <glyph glyph-name="uni0237" unicode="&#x237;" horiz-adv-x="364" 
d="M256 392v-374q0 -108 -28 -152q-46 -71 -151 -71q-51 0 -107 18l6 103l48 -6l6 -49q36 -18 59 -18q37 0 56 33q15 26 15 96v420l-6 84l-42 6l-6 48l156 6z" />
    <glyph glyph-name="circumflex" unicode="&#x2c6;" horiz-adv-x="627" 
d="M313 723l-96 -96h-66l108 144h108l109 -144h-66z" />
    <glyph glyph-name="caron" unicode="&#x2c7;" horiz-adv-x="627" 
d="M476 771l-109 -144h-108l-108 144h66l96 -96l97 96h66z" />
    <glyph glyph-name="uni02C9" unicode="&#x2c9;" horiz-adv-x="627" 
d="M175 627v72h277v-72h-277z" />
    <glyph glyph-name="breve" unicode="&#x2d8;" horiz-adv-x="627" 
d="M151 771h48q10 -37 41.5 -54.5t72.5 -17.5t72.5 17.5t42.5 54.5h48q-6 -63 -52.5 -103.5t-110.5 -40.5t-110.5 40.5t-51.5 103.5z" />
    <glyph glyph-name="dotaccent" unicode="&#x2d9;" horiz-adv-x="627" 
d="M265 627v96h96v-96h-96z" />
    <glyph glyph-name="ring" unicode="&#x2da;" horiz-adv-x="627" 
d="M235 705q0 32 23 55t55 23t55.5 -23t23.5 -55t-23.5 -55t-55.5 -23t-55 23t-23 55zM265 705q0 -20 14 -34t34 -14t34.5 14t14.5 34t-14.5 34t-34.5 14q-19 0 -33.5 -14.5t-14.5 -33.5z" />
    <glyph glyph-name="ogonek" unicode="&#x2db;" horiz-adv-x="627" 
d="M321 0h57q-57 -41 -57 -71q0 -15 13.5 -23.5t29.5 -8.5q24 0 50 9v-39q-39 -12 -70 -12q-35 0 -64.5 15t-29.5 47q0 46 71 83z" />
    <glyph glyph-name="tilde" unicode="&#x2dc;" horiz-adv-x="627" 
d="M325 719l26 -10q26 -10 39 -10q18 0 29.5 12t11.5 30h42q1 -51 -21.5 -83t-71.5 -32q-24 0 -79 22l-25 10q-24 11 -40 11q-17 0 -29 -12.5t-11 -29.5h-42q-1 51 21.5 82.5t71.5 31.5q23 0 78 -22z" />
    <glyph glyph-name="hungarumlaut" unicode="&#x2dd;" horiz-adv-x="627" 
d="M203 627l108 144h72l-134 -144h-46zM319 627l109 144h71l-134 -144h-46z" />
    <glyph glyph-name="uni0337" unicode="&#x337;" horiz-adv-x="341" 
d="M14 282v63l313 168v-61z" />
    <glyph glyph-name="Gamma" unicode="&#x393;" horiz-adv-x="548" 
d="M216 675v-531l6 -90l54 -6l6 -48h-216l6 48l42 6l6 90v446l-6 79l-42 6l-6 48h458l-6 -109l-48 6l-6 49l-103 6h-145z" />
    <glyph glyph-name="Theta" unicode="&#x398;" horiz-adv-x="789" 
d="M60 361q0 167 79 264q93 116 256 116q158 0 252 -111q82 -97 82 -269q0 -166 -78 -263q-94 -116 -256 -116q-161 0 -252 111q-83 100 -83 268zM162 361q0 -60 12 -114.5t37 -105t72.5 -81t111.5 -30.5t111 30.5t72 81t37 105.5t12 114q0 60 -12 115t-37 105.5t-72.5 81
t-111.5 30.5t-111 -30.5t-72 -81t-37 -105.5t-12 -115zM316 407h157l6 51l48 6v-171l-48 6l-6 48h-157l-6 -48l-48 -6v171l48 -6z" />
    <glyph glyph-name="Lambda" unicode="&#x39b;" horiz-adv-x="727" 
d="M342 603l-217 -549l54 -6l6 -48h-161l6 48l30 6l47 102l228 576h60l234 -599l36 -79l30 -6l6 -48h-200l6 48l49 6z" />
    <glyph glyph-name="Xi" unicode="&#x39e;" 
d="M249 416h134l89 6l6 42l48 6v-168l-48 6l-6 42l-89 6h-134l-89 -6l-6 -42l-48 -6v168l48 -6l6 -42zM431 651h-230l-90 -6l-6 -43l-48 -6l-6 127h530l-6 -127l-48 6l-6 43zM174 78h284l90 6l6 46l48 6l6 -136h-584l6 136l48 -6l6 -46z" />
    <glyph glyph-name="Pi" unicode="&#x3a0;" horiz-adv-x="783" 
d="M216 675v-531l6 -90l42 -6l6 -48h-204l6 48l42 6l6 90v446l-6 79l-42 6l-6 48h651l-6 -48l-42 -6l-7 -103v-422l6 -90l42 -6l6 -48h-204l6 48l42 6l6 90v531h-350z" />
    <glyph glyph-name="Sigma" unicode="&#x3a3;" horiz-adv-x="642" 
d="M614 0h-602v60l315 280l-294 335v48h557l-6 -106l-48 6l-6 46l-102 6h-267l269 -307l-332 -296h354l102 6l6 42l48 6z" />
    <glyph glyph-name="Upsilon" unicode="&#x3a5;" horiz-adv-x="659" 
d="M347 400h2q29 115 108.5 212t184.5 111v-48q-61 -12 -110.5 -58t-84.5 -108q-67 -125 -69 -280v-85l6 -90l42 -6l6 -48h-204l6 48l42 6l6 90v85q0 155 -59 276q-31 62 -83 113.5t-109 56.5v48q88 6 159 -41.5t109.5 -121.5t47.5 -160z" />
    <glyph glyph-name="Phi" unicode="&#x3a6;" horiz-adv-x="687" 
d="M295 578v91l-48 6l-6 48h204l-6 -48l-48 -6v-91q106 6 187 -53.5t81 -163.5t-81 -163t-187 -53v-91l48 -6l6 -48h-204l6 48l48 6v91q-106 -6 -187 53t-81 163t81 163.5t187 53.5zM295 193v337q-78 1 -125 -45t-47 -124q0 -77 47 -123t125 -45zM391 530v-337q78 -1 125 45
t47 123q0 78 -47 124t-125 45z" />
    <glyph glyph-name="Psi" unicode="&#x3a8;" horiz-adv-x="723" 
d="M313 373v206l-6 90l-42 6l-6 48h204l-6 -48l-42 -6l-6 -90v-206q25 -1 45 11t31.5 26t22 42.5t14 42t10.5 44.5q0 2 3.5 20t5 24t5.5 22.5t7.5 25.5t8 21.5t10 21.5t11.5 16q15 16 39 23.5t39 8.5t46 1h9v-48h-7q-44 0 -61 -21q-6 -7 -10.5 -21t-7 -25.5t-5.5 -29
t-4 -21.5q-8 -47 -13 -68.5t-21 -55.5t-40 -57q-47 -46 -138 -51v-181l6 -90l42 -6l6 -48h-204l6 48l42 6l6 90v181q-91 5 -138 51q-24 23 -40 57t-21 55.5t-13 68.5q-1 4 -4 21.5t-5.5 29t-7 25.5t-10.5 21q-17 21 -61 21h-7v48h9q31 0 46 -1t39 -8.5t39 -23.5
q6 -7 11.5 -16t10 -21.5t8 -21.5t7.5 -25.5t5.5 -22.5t5 -24t3.5 -20q7 -31 10.5 -44.5t14 -42t22 -42.5t31.5 -26t45 -11z" />
    <glyph glyph-name="uni03A9" unicode="&#x3a9;" horiz-adv-x="819" 
d="M343 0h-295l6 111l48 -6l6 -45h172q-202 179 -202 350q0 144 93.5 237.5t238.5 93.5q144 0 237.5 -93.5t93.5 -237.5q0 -171 -202 -350h172l6 45l48 6l6 -111h-295v60q163 163 163 344q0 123 -66 206t-163 83q-98 0 -164 -83t-66 -206q0 -179 163 -344v-60z" />
    <glyph glyph-name="uni03BC" unicode="&#x3bc;" horiz-adv-x="675" 
d="M458 74l6 25h-6q-29 -47 -83 -79t-107 -32q-23 0 -52 22l6 -155h-102v531l-6 90l-42 6l-6 48l156 6l-6 -144v-208q0 -32 2 -49t9.5 -37t25.5 -29t48 -9q80 0 157 85v247l-6 84l-42 6l-6 48l156 6l-6 -144v-248l6 -90l42 -6l6 -48l-150 -6v80z" />
    <glyph glyph-name="pi" unicode="&#x3c0;" horiz-adv-x="804" 
d="M200 0v452h-22q-46 0 -76.5 -12t-61.5 -42v92q40 40 124 40h609v-78h-151v-264q0 -110 90 -188h-106q-44 44 -62 92t-18 120v240h-230v-452h-96z" />
    <glyph glyph-name="uni2010" unicode="&#x2010;" horiz-adv-x="349" 
d="M60 265l6 60h223l-6 -60h-223z" />
    <glyph glyph-name="endash" unicode="&#x2013;" horiz-adv-x="500" 
d="M0 265v60h500v-60h-500z" />
    <glyph glyph-name="emdash" unicode="&#x2014;" horiz-adv-x="1000" 
d="M0 265v60h1000v-60h-1000z" />
    <glyph glyph-name="quoteleft" unicode="&#x2018;" horiz-adv-x="241" 
d="M181 506h-120v91q0 33 1.5 51t11 42.5t27.5 42.5q30 30 80 38v-37q-17 -2 -28 -13t-14.5 -30.5t-4.5 -31t-1 -33.5h48v-120z" />
    <glyph glyph-name="quoteright" unicode="&#x2019;" horiz-adv-x="241" 
d="M60 771h120v-91q0 -33 -1.5 -51t-11 -42.5t-27.5 -42.5q-30 -30 -80 -38v37q17 2 28 13t14.5 30.5t4.5 31t1 33.5h-48v120z" />
    <glyph glyph-name="quotesinglbase" unicode="&#x201a;" horiz-adv-x="241" 
d="M60 120h120v-91q0 -33 -1.5 -51t-11 -42.5t-27.5 -42.5q-30 -30 -80 -38v37q17 2 28 13t14.5 30.5t4.5 31t1 33.5h-48v120z" />
    <glyph glyph-name="quotedblleft" unicode="&#x201c;" horiz-adv-x="386" 
d="M326 771v-42q-37 -17 -37 -95v-8h37v-96h-96v62q0 68 20 113.5t76 65.5zM157 771v-42q-37 -17 -37 -95v-8h37v-96h-96v62q0 68 20 113.5t76 65.5z" />
    <glyph glyph-name="quotedblright" unicode="&#x201d;" horiz-adv-x="386" 
d="M60 530v42q37 17 37 95v8h-37v96h96v-62q0 -68 -20 -113.5t-76 -65.5zM229 530v42q37 17 37 95v8h-37v96h96v-62q0 -68 -20 -113.5t-76 -65.5z" />
    <glyph glyph-name="quotedblbase" unicode="&#x201e;" horiz-adv-x="386" 
d="M60 -145v42q37 17 37 95v8h-37v96h96v-62q0 -68 -20 -113.5t-76 -65.5zM229 -145v42q37 17 37 95v8h-37v96h96v-62q0 -68 -20 -113.5t-76 -65.5z" />
    <glyph glyph-name="dagger" unicode="&#x2020;" 
d="M268 -145l12 555l-175 -12l6 72l169 -12l-12 265h96l-12 -265l175 12l-6 -72l-169 12l12 -555h-96z" />
    <glyph glyph-name="daggerdbl" unicode="&#x2021;" 
d="M352 458l175 12l-6 -72l-169 12v-242l175 12l-6 -72l-169 12l12 -265h-96l12 265l-175 -12l6 72l169 -12v242l-175 -12l6 72l169 -12l-12 265h96z" />
    <glyph glyph-name="bullet" unicode="&#x2022;" 
d="M136 361q0 74 53 127.5t127 53.5t127.5 -53.5t53.5 -127.5t-53.5 -127t-127.5 -53t-127 53t-53 127z" />
    <glyph glyph-name="ellipsis" unicode="&#x2026;" horiz-adv-x="1000" 
d="M118 0v96h96v-96h-96zM452 0v96h96v-96h-96zM786 0v96h96v-96h-96z" />
    <glyph glyph-name="perthousand" unicode="&#x2030;" horiz-adv-x="1048" 
d="M523 361q72 0 113 -53t41 -128t-41 -128t-113 -53t-112.5 53t-40.5 128t40.5 128t112.5 53zM523 313q-44 0 -62.5 -41t-18.5 -92q0 -50 18.5 -91.5t62.5 -41.5t63 41.5t19 91.5q0 51 -19 92t-63 41zM176 723q72 0 113 -53t41 -128t-41 -128t-113 -53t-112.5 53t-40.5 128
t40.5 128t112.5 53zM176 675q-44 0 -62.5 -41t-18.5 -92q0 -50 18.5 -91.5t62.5 -41.5t63 41.5t19 91.5q0 51 -19 92t-63 41zM872 361q72 0 113 -53t41 -128t-41 -128t-113 -53t-112.5 53t-40.5 128t40.5 128t112.5 53zM872 313q-44 0 -62.5 -41t-18.5 -92q0 -50 18.5 -91.5
t62.5 -41.5t63 41.5t19 91.5q0 51 -19 92t-63 41zM29 -18l581 759h60l-581 -759h-60z" />
    <glyph glyph-name="guilsinglleft" unicode="&#x2039;" horiz-adv-x="361" 
d="M298 482l-138 -187l138 -187l-37 -30l-198 217l198 217z" />
    <glyph glyph-name="guilsinglright" unicode="&#x203a;" horiz-adv-x="361" 
d="M63 108l138 187l-138 187l37 30l198 -217l-198 -217z" />
    <glyph glyph-name="fraction" unicode="&#x2044;" horiz-adv-x="36" 
d="M-289 -18l538 759h88l-538 -759h-88z" />
    <glyph glyph-name="Euro" unicode="&#x20ac;" 
d="M0 271l20 48h62q-2 19 -2 42q0 17 3 55h-83l20 48h70q27 135 107 206t204 71q102 0 183 -36l-6 -115l-48 6l-12 65q-57 32 -105 32q-84 0 -143 -60.5t-79 -168.5h299l-20 -48h-285q-3 -38 -3 -55q0 -25 2 -42h246l-19 -48h-221q20 -106 88.5 -172t158.5 -66q74 0 141 37
v-48q-67 -40 -177 -40q-119 0 -203.5 78t-109.5 211h-88z" />
    <glyph glyph-name="afii61289" unicode="&#x2113;" horiz-adv-x="452" 
d="M411 122l21 -18q-68 -120 -183 -120q-71 0 -110 42q-38 46 -38 155v86l-68 -50l-14 25l82 64v135q0 136 11 192.5t47 95.5q39 49 93 49q48 0 73.5 -41t25.5 -100q0 -88 -43 -163.5t-122 -153.5v-95q0 -103 25.5 -143.5t76.5 -40.5q68 0 123 81zM186 506v-138
q109 127 109 267q0 48 -13.5 79t-39.5 31q-31 0 -43.5 -54t-12.5 -185z" />
    <glyph glyph-name="trademark" unicode="&#x2122;" horiz-adv-x="901" 
d="M142 675h-67l-6 -36l-48 -6l-6 90h337l-6 -90l-48 6l-6 36h-66v-259l48 -6l6 -49h-193l6 49l49 6v259zM587 392l-82 228h-2v-259h-102l6 49l36 6v253l-36 6l-6 48h154l77 -209l70 209h150l-6 -48l-36 -6v-253l36 -6l6 -49h-126v281h-2l-82 -250h-55z" />
    <glyph glyph-name="Omega" unicode="&#x2126;" horiz-adv-x="819" 
d="M343 0h-295l6 111l48 -6l6 -45h172q-202 179 -202 350q0 144 93.5 237.5t238.5 93.5q144 0 237.5 -93.5t93.5 -237.5q0 -171 -202 -350h172l6 45l48 6l6 -111h-295v60q163 163 163 344q0 123 -66 206t-163 83q-98 0 -164 -83t-66 -206q0 -179 163 -344v-60z" />
    <glyph glyph-name="estimated" unicode="&#x212e;" horiz-adv-x="914" 
d="M877 350h-681q-6 0 -6 -4v-206q0 -14 9 -24q109 -112 258 -112q162 0 271 125h61q-57 -67 -145 -106.5t-188 -39.5q-174 0 -297.5 110.5t-123.5 266.5q0 157 123.5 268t297.5 111q175 0 298 -111t123 -268v-10zM723 377v208q0 14 -10 24q-111 108 -256 108
q-148 0 -257 -111q-10 -10 -10 -26v-203q0 -6 6 -6h522q5 0 5 6z" />
    <glyph glyph-name="partialdiff" unicode="&#x2202;" 
d="M118 632q72 151 202 151q102 0 159 -89t57 -249q0 -197 -83 -327t-208 -130q-67 0 -108 47t-41 122q0 125 84.5 232.5t182.5 107.5q67 0 122 -51q-2 65 -12.5 104t-35.5 73q-57 76 -141 76q-99 0 -178 -67zM484 379q-49 67 -116 67q-69 0 -124.5 -77.5t-55.5 -174.5
q0 -66 23.5 -101.5t66.5 -35.5q46 0 88 35.5t73 100.5q34 73 42 151q5 33 3 35z" />
    <glyph glyph-name="Delta" unicode="&#x2206;" horiz-adv-x="753" 
d="M45 0v60l298 672h61l304 -672v-60h-663zM110 72h487l-246 543z" />
    <glyph glyph-name="product" unicode="&#x220f;" horiz-adv-x="782" 
d="M66 -145l6 48l42 6l6 91v579l-6 90l-42 6l-6 48h650l-6 -48l-42 -6l-6 -90v-579l6 -91l42 -6l6 -48h-204l6 48l42 6l6 91v675h-350v-675l6 -91l42 -6l6 -48h-204z" />
    <glyph glyph-name="summation" unicode="&#x2211;" horiz-adv-x="698" 
d="M42 -145v60l318 363l-297 397v48h557l-6 -105l-48 6l-6 45l-90 6h-286l271 -362l-339 -386h354l114 6l6 42l48 6l6 -126h-602z" />
    <glyph glyph-name="minus" unicode="&#x2212;" 
d="M27 253v72h578v-72h-578z" />
    <glyph glyph-name="uni2215" unicode="&#x2215;" horiz-adv-x="36" 
d="M-289 -18l538 759h88l-538 -759h-88z" />
    <glyph glyph-name="uni2219" unicode="&#x2219;" horiz-adv-x="316" 
d="M98 229v120h120v-120h-120z" />
    <glyph glyph-name="radical" unicode="&#x221a;" horiz-adv-x="715" 
d="M86 162l-28 47l131 76l202 -334l298 868h59l-334 -964h-51l-210 347z" />
    <glyph glyph-name="infinity" unicode="&#x221e;" horiz-adv-x="849" 
d="M418 233q-44 -80 -86.5 -114.5t-96.5 -34.5q-74 0 -124.5 55.5t-50.5 137.5q0 90 51 153.5t123 63.5q56 0 98.5 -34t98.5 -122q32 60 52 85q52 71 133 71q73 0 123 -58t50 -141q0 -91 -50.5 -151t-127.5 -60q-52 0 -85 23t-86 96q-7 9 -22 30zM385 277q-35 61 -80 100
t-80 39q-43 0 -74.5 -42t-31.5 -101q0 -57 31.5 -93.5t81.5 -36.5q56 0 105 57q19 22 35 49q4 8 6 11.5t4 8t2 6.5zM462 290q31 -44 78 -88q46 -42 85 -42q44 0 73 40.5t29 101.5q0 54 -33 91.5t-80 37.5q-55 0 -102 -55q-22 -28 -34 -52z" />
    <glyph glyph-name="integral" unicode="&#x222b;" 
d="M414 682h-5q-26 0 -37.5 -41.5t-11.5 -137.5q0 -29 1 -43l1 -47l1 -48l1 -48v-41q0 -143 -12 -224.5t-40 -133.5q-35 -62 -107 -62q-31 0 -52.5 18t-21.5 44q0 18 14.5 33t32.5 15t31 -12t12 -28q0 -3 -2 -11q2 -1 6 -1q25 0 36.5 39t11.5 125q0 2 -0.5 24t-0.5 33
q-1 31 -2 67t-1.5 55t-0.5 22v42q0 226 37 323t123 97q30 0 51.5 -18t21.5 -43q0 -22 -14.5 -36.5t-35.5 -14.5q-16 0 -27.5 12t-11.5 28q0 1 2 13z" />
    <glyph glyph-name="approxequal" unicode="&#x2248;" 
d="M99 322h-48q2 74 39 118.5t97 44.5q26 0 43 -6t74 -37l65 -34q61 -32 94 -32q61 0 70 91h48q-1 -73 -38 -118t-94 -45q-25 0 -47.5 8t-73.5 35l-65 34q-61 32 -94 32q-60 0 -70 -91zM99 117h-48q2 74 39 118.5t97 44.5q25 0 42.5 -6.5t74.5 -36.5l65 -34q61 -32 94 -32
q61 0 70 91h48q-1 -73 -38 -118t-94 -45q-25 0 -47.5 8t-73.5 35l-65 34q-61 32 -94 32q-60 0 -70 -91z" />
    <glyph glyph-name="notequal" unicode="&#x2260;" 
d="M51 169v72h210l55 97h-265v72h306l55 96h55l-55 -96h169v-72h-210l-55 -97h265v-72h-306l-55 -97h-55l55 97h-169z" />
    <glyph glyph-name="lessequal" unicode="&#x2264;" 
d="M581 0h-530v72h530v-72zM581 627v-81l-368 -185l368 -184v-81l-530 265z" />
    <glyph glyph-name="greaterequal" unicode="&#x2265;" 
d="M581 0h-530v72h530v-72zM51 96v81l368 184l-368 185v81l530 -266z" />
    <glyph glyph-name="lozenge" unicode="&#x25ca;" 
d="M316 0l-265 265l265 265l265 -265zM316 102l163 163l-163 163l-163 -163z" />
    <glyph glyph-name="fi" unicode="&#xfb01;" horiz-adv-x="663" 
d="M458 627v96h96v-96h-96zM217 530h199l144 6l-6 -144v-248l6 -90l42 -6l6 -48h-204l6 48l42 6l6 90v248l-6 84h-235v-332l6 -90l42 -6l6 -48h-204l6 48l42 6l6 90v332h-79v54h79v10q0 117 18 156q41 87 145 87q52 0 107 -36l-6 -96l-48 6l-6 48q-21 30 -50 30
q-19 0 -32 -9t-19 -20t-9.5 -32t-3.5 -31.5v-32.5v-11v-69z" />
    <glyph glyph-name="fl" unicode="&#xfb02;" horiz-adv-x="663" 
d="M349 530v-54h-132v-332l6 -90l42 -6l6 -48h-204l6 48l42 6l6 90v332h-79v54h79v10q0 117 18 156q41 87 145 87q60 0 111 -12l165 6l-6 -144v-489l6 -90l42 -6l6 -48h-204l6 48l42 6l6 90v552q-75 39 -142 39q-52 0 -76 -23q-12 -11 -17 -30t-5.5 -28t-0.5 -35v-89h132z
" />
    <glyph glyph-name="one.superior" horiz-adv-x="428" 
d="M175 675h-67l-6 48l157 12v-319l66 -6l6 -49h-229l6 49l67 6v259z" />
    <glyph glyph-name="two.superior" horiz-adv-x="428" 
d="M206 741q62 0 110 -24.5t48 -80.5q0 -19 -9 -37.5t-18 -29t-32 -25.5t-31 -19t-34 -18q-4 -2 -20.5 -10t-26 -14t-22 -15t-18 -20t-4.5 -23h221v-64h-301v64q17 33 44 56.5t70 51.5q61 40 78 65q13 18 13 37q0 58 -78 58q-42 0 -79 -18v-45h-48v87q57 24 137 24z" />
    <glyph glyph-name="three.superior" horiz-adv-x="428" 
d="M126 669v-30h-48v78q72 24 140 24q67 0 109 -21q20 -10 33.5 -28.5t13.5 -39.5q0 -40 -37.5 -65.5t-84.5 -34.5v-2q50 -5 85.5 -28.5t35.5 -68.5q0 -42 -34 -68q-43 -35 -123 -35q-62 0 -138 17v73h48v-27q33 -15 77 -15q33 0 56.5 13t23.5 43q0 35 -36 55q-37 20 -95 20
h-19v48h13q22 0 33.5 0.5t34.5 4t35.5 10t23 20t10.5 33.5q0 24 -20 36t-46 12q-51 0 -91 -24z" />
    <glyph glyph-name="a.superior" horiz-adv-x="428" 
d="M360 600v-127v-5q0 -14 0.5 -21.5t3 -18t10 -15.5t19.5 -5h10v-43q-28 -13 -53 -13q-56 0 -73 53q-56 -56 -127 -56q-48 0 -80.5 29.5t-32.5 76.5q0 65 61 103q48 29 157 29h20v11q0 49 -19 70q-24 25 -64 25q-48 0 -82 -30v-27h-49v75q61 30 145 30q82 0 118 -29
q17 -14 25.5 -34t9.5 -35t1 -43zM275 450v89h-16q-137 0 -137 -75q0 -26 17 -43t42 -17q22 0 50 14t44 32z" />
    <glyph glyph-name="o.superior" horiz-adv-x="428" 
d="M214 741q85 0 133 -54.5t48 -141.5t-48 -141.5t-133 -54.5t-133 54.5t-48 141.5t48 141.5t133 54.5zM214 693q-33 0 -54.5 -26.5t-29 -58t-7.5 -63.5t7.5 -63.5t29 -58t54.5 -26.5t54.5 26.5t29 58t7.5 63.5t-7.5 63.5t-29 58t-54.5 26.5z" />
    </font>
</defs>
</svg>
